<?xml version="1.0" encoding="utf-8"?>
<!-- Generator: Adobe Illustrator 24.0.1, SVG Export Plug-In . SVG Version: 6.00 Build 0)  -->
<svg version="1.1" id="Layer_1" xmlns="http://www.w3.org/2000/svg" xmlns:xlink="http://www.w3.org/1999/xlink" x="0px" y="0px"
	 viewBox="0 0 504 504" enable-background="new 0 0 504 504" xml:space="preserve">
<path fill="#C4C8B6" d="M322.46,209.5c0-19.97-42.57-36.16-95.08-36.16c-52.51,0-95.08,16.19-95.08,36.16
	c0,1.13,0.14,2.25,0.41,3.35h-0.41v151.87c-0.27,1.55-0.41,3.12-0.41,4.71c0,28.07,42.57,50.82,95.08,50.82
	c49.54,0,90.23-20.25,94.67-46.11h0.41V212.85C322.32,211.75,322.46,210.63,322.46,209.5z"/>
<ellipse fill="#A6AC94" cx="226.08" cy="210.65" rx="90.64" ry="35.01"/>
<path fill="#A05A2B" d="M222.46,245.66c28.62,0.65,51.83-5.04,66.89-10.02c-15.77-4.59-38.51-9.33-66.05-8.88
	c-24.04,0.4-44.09,4.62-58.71,8.88C178.42,240.22,198.27,245.11,222.46,245.66z"/>
<path fill="#C4C8B6" d="M322.05,262.52c1.85-1.35,4.63-2.93,8.15-3.24c11.17-0.99,19.35,11.67,20.88,14.04
	c6.01,9.3,5.9,18.84,5.76,24.48c-0.13,5.43-0.65,26.16-16.56,37.08c-7.01,4.81-14.28,5.85-18.23,6.12c0,9.26,0,18.53,0,27.79
	c3.08-0.24,7.48-0.86,12.47-2.59c21.66-7.51,31.6-28.05,34.92-34.92c1.71-3.53,8.49-18.22,7.92-38.52
	c-0.22-8.03-1.01-36.42-20.52-51.48c-3.14-2.42-11.32-8.74-23.04-9c-4.98-0.11-9.07,0.91-11.75,1.8
	C322.05,243.56,322.05,253.04,322.05,262.52z"/>
</svg>
