<?xml version="1.0" encoding="utf-8"?>
<!-- Generator: Adobe Illustrator 24.0.1, SVG Export Plug-In . SVG Version: 6.00 Build 0)  -->
<svg version="1.1" id="Layer_1" xmlns="http://www.w3.org/2000/svg" xmlns:xlink="http://www.w3.org/1999/xlink" x="0px" y="0px"
	 viewBox="0 0 504 504" enable-background="new 0 0 504 504" xml:space="preserve">
<path fill="#0E131A" d="M224.72,231.2c8.63-19.4,17.26-38.79,25.88-58.19c0.01,16.28,0.02,32.55,0.04,48.83
	c-5.28,10.2-10.56,20.4-15.84,30.6C231.44,245.36,228.08,238.28,224.72,231.2z"/>
<path fill="#0C1728" d="M313.4,156.68h-38.88c-14.18,0-25.68,11.5-25.68,25.68v88.56h90.24v-88.56
	C339.08,168.18,327.58,156.68,313.4,156.68z"/>
<path fill="#E8E8E8" d="M267.92,270.08c0-37.2,0-74.4,0-111.6c3.82-1.77,9.6-3.9,16.92-4.68c8.88-0.94,16.12,0.54,20.52,1.8
	c0,38.28,0,76.57,0,114.85C292.88,270.33,280.4,270.2,267.92,270.08z"/>
<path fill="#05203D" d="M267.92,242c0,5.52,0,11.04,0,16.56c15.48,0.24,30.96,0.48,46.44,0.72c2.24-0.64,5.58-1.92,8.64-4.68
	c5.06-4.57,6.45-10.58,7.2-14.04c4.49-20.71,8.82-49.55,9-50.76c0.49-2.64,1.07-7.73-0.72-13.68c-0.61-2.01-1.96-6.33-5.76-10.44
	c-5.01-5.41-11.12-7.04-13.68-7.56c-4.08,22.08-8.16,44.16-12.24,66.24c0,5.64,0,11.28,0,16.92
	C293.84,241.52,280.88,241.76,267.92,242z"/>
<path fill="#FBC4A9" d="M267.92,242c-0.79-0.24-7.44-2.09-13.32,2.16c-4.48,3.23-6.81,8.77-6.12,14.4c6.48,0,12.96,0,19.44,0
	C267.92,253.04,267.92,247.52,267.92,242z"/>
<path fill="#FBC4A9" d="M218.24,236.6"/>
<path fill="#FBC4A9" d="M243.44,95.84h61.92v57.92h-33.14c-15.89,0-28.78-12.88-28.78-28.78V95.84z"/>
<path fill="#F79C7E" d="M278.36,153.44c1.62-1.53,3.33-3.32,5.04-5.4c2.62-3.19,4.61-6.28,6.12-9c0.36-12.36,0.72-24.72,1.08-37.08
	c4.81,2.84,7.96,4.09,10.08,4.68c0.89,0.24,2.8,0.71,4.11,2.29c0.4,0.48,0.99,1.37,1.48,2.4c0.33,0.7,1.18,2.88,0.9,2.15l0,0
	c0,0,0.54,2.63,0.63,3.87c0.11,1.44-0.19,3.51-2.07,6.21c0,10.07,0,20.13,0,30.2C296.6,153.65,287.48,153.55,278.36,153.44z"/>
<path fill="#5E1E42" d="M280.88,106.64c-9.72,0-19.44,0-29.16,0c-1.65-0.36-7.04-1.75-11.16-6.84c-1.13-1.39-4.71-5.96-4.32-12.6
	c0.06-1.07,0.58-7.97,6.48-12.6c1.51-1.18,5.14-3.62,10.08-3.6c9.61,0.04,14.91,9.34,15.12,9.72c7.92,0,15.84,0,23.76,0
	c1.44,0.17,5.65,0.85,9.36,4.32c3.21,3,4.31,6.46,4.68,7.92c0.48,6.84,0.96,13.68,1.44,20.52c-0.07-0.37-0.9-4.53-4.68-6.12
	c-2.02-0.85-3.89-0.54-4.68-0.36c0,3.96,0,7.92,0,11.89c-2-0.04-4.42-0.44-5.76-2.17c-1.16-1.49-0.54-2.73-1.8-3.96
	c-1.66-1.62-3.71-0.43-6.12-1.8C283.1,110.38,281.8,109.23,280.88,106.64z"/>
<path fill="#5E1E42" d="M305.72,123.36c-0.31,0.2-2.18,1.48-2.52,3.87c-0.3,2.09,0.68,4.22,2.52,5.49
	C305.72,129.6,305.72,126.48,305.72,123.36z"/>
<path fill="#A4A6BF" d="M234.68,269.96c16.88,0.08,33.76,0.16,50.64,0.24c0.27-0.07,3.01-0.89,3.84-3.36
	c0.82-2.46-0.59-5.58-3.6-6.96c-15.36,0-30.72,0-46.08,0c-9.2-20-18.4-40-27.6-60c-1.92-0.08-3.84-0.16-5.76-0.24
	c9.36,20.08,18.72,40.16,28.08,60.24c0.39,0.41,2.15,2.32,2.16,5.28C236.37,267.71,235.08,269.45,234.68,269.96z"/>
<path fill="#5E1E42" d="M438.2,281.24H73.88c-3.18,0-5.76-2.58-5.76-5.76v0c0-3.18,2.58-5.76,5.76-5.76H438.2
	c3.18,0,5.76,2.58,5.76,5.76v0C443.96,278.66,441.38,281.24,438.2,281.24z"/>
<path fill="#7E778E" d="M206.12,199.64c-24.96,0-49.93,0-74.89,0c-0.37,0.01-2.48,0.13-4.07,1.92c-1.51,1.7-1.46,3.68-1.44,4.08
	c10.24,21.36,20.48,42.72,30.72,64.08c26.08,0,52.16,0,78.24,0c0.44-0.51,1.17-1.51,1.51-2.96c0.51-2.16-0.18-3.93-0.44-4.53
	C225.87,241.37,216,220.5,206.12,199.64"/>
<rect x="91.88" y="281.24" fill="#5E1E42" width="215.93" height="143.28"/>
<rect x="307.81" y="281.24" fill="#4C1234" width="115.27" height="143.28"/>
</svg>
