<svg width="676" height="489" viewBox="0 0 676 489" fill="none" xmlns="http://www.w3.org/2000/svg">
<g opacity="0.9">
<path d="M591.842 430.082L71.8425 415.182C47.6425 414.482 27.7425 395.982 25.3425 371.882L0.24252 123.882C-2.55748 95.7817 19.2425 71.2817 47.4425 70.8817L626.243 62.8817C655.443 62.4817 678.343 87.9818 674.743 116.982L641.043 387.882C637.943 412.582 616.642 430.782 591.842 430.082Z" fill="#CEE2FF"/>
<mask id="mask0_301_3446" style="mask-type:alpha" maskUnits="userSpaceOnUse" x="0" y="62" width="676" height="369">
<path d="M591.842 430.082L71.8425 415.182C47.6425 414.482 27.7425 395.982 25.3425 371.882L0.24249 123.882C-2.55751 95.7817 19.2425 71.2817 47.4425 70.8817L626.242 62.8817C655.442 62.4817 678.342 87.9818 674.742 116.982L641.042 387.882C637.942 412.582 616.642 430.782 591.842 430.082Z" fill="#EAF9F3"/>
</mask>
<g mask="url(#mask0_301_3446)">
<path d="M516.943 497.382H932.443C940.743 497.382 947.443 490.682 947.443 482.382V246.782C947.443 238.482 940.743 231.782 932.443 231.782H516.943C508.643 231.782 501.943 238.482 501.943 246.782V482.382C501.943 490.682 508.743 497.382 516.943 497.382Z" stroke="#4F5C55" stroke-width="1.8" stroke-miterlimit="10" stroke-linecap="round" stroke-linejoin="round"/>
<path d="M-32.1575 481.582H386.943C395.243 481.582 401.943 474.882 401.943 466.582V122.282C401.943 113.982 395.243 107.282 386.943 107.282H-32.1575C-40.4575 107.282 -47.1575 113.982 -47.1575 122.282V466.582C-47.1575 474.882 -40.3575 481.582 -32.1575 481.582Z" stroke="#4F5C55" stroke-width="1.8" stroke-miterlimit="10" stroke-linecap="round" stroke-linejoin="round"/>
<path d="M616.643 161.382H706.543V152.482H616.643C615.643 152.482 614.843 153.282 614.843 154.282V159.482C614.743 160.582 615.643 161.382 616.643 161.382Z" stroke="#4F5C55" stroke-width="1.8" stroke-miterlimit="10" stroke-linecap="round" stroke-linejoin="round"/>
<path d="M632.943 152.482H653.243C655.443 152.482 657.243 150.882 657.543 148.682L659.142 134.282C659.442 131.782 657.443 129.482 654.843 129.482H631.343C628.743 129.482 626.843 131.682 627.043 134.282L628.642 148.682C628.842 150.882 630.743 152.482 632.943 152.482Z" stroke="#4F5C55" stroke-width="1.8" stroke-miterlimit="10" stroke-linecap="round" stroke-linejoin="round"/>
<path d="M645.443 129.582C645.443 129.582 653.443 128.782 655.043 117.982C655.043 117.982 647.843 120.082 645.543 125.182C645.543 125.182 644.543 113.782 639.143 112.682C639.143 112.682 636.743 121.182 640.543 125.382C640.543 125.382 637.643 120.582 630.243 120.682C630.243 120.682 632.143 127.482 639.443 129.482" fill="#4F5C55"/>
<path d="M520.143 281.482H610.343C612.643 281.482 614.543 279.582 614.543 277.282V249.882C614.543 247.582 612.643 245.682 610.343 245.682H520.143C517.843 245.682 515.943 247.582 515.943 249.882V277.282C515.943 279.582 517.843 281.482 520.143 281.482Z" stroke="#4F5C55" stroke-width="1.8" stroke-miterlimit="10" stroke-linecap="round" stroke-linejoin="round"/>
<path d="M554.843 255.282H575.643C576.443 255.282 577.143 254.582 577.143 253.782C577.143 252.982 576.443 252.282 575.643 252.282H554.843C554.043 252.282 553.343 252.982 553.343 253.782C553.343 254.682 554.043 255.282 554.843 255.282Z" fill="#4F5C55"/>
<path d="M520.143 327.282H610.343C612.643 327.282 614.543 325.382 614.543 323.082V295.682C614.543 293.382 612.643 291.482 610.343 291.482H520.143C517.843 291.482 515.943 293.382 515.943 295.682V322.982C515.943 325.382 517.843 327.282 520.143 327.282Z" stroke="#4F5C55" stroke-width="1.8" stroke-miterlimit="10" stroke-linecap="round" stroke-linejoin="round"/>
<path d="M554.843 301.082H575.643C576.443 301.082 577.143 300.382 577.143 299.582C577.143 298.782 576.443 298.082 575.643 298.082H554.843C554.043 298.082 553.343 298.782 553.343 299.582C553.343 300.482 554.043 301.082 554.843 301.082Z" fill="#4F5C55"/>
<path d="M56.9426 359.582H147.143C149.443 359.582 151.343 357.682 151.343 355.382V327.982C151.343 325.682 149.443 323.782 147.143 323.782H56.9426C54.6426 323.782 52.7426 325.682 52.7426 327.982V355.382C52.7426 357.682 54.6426 359.582 56.9426 359.582Z" stroke="#4F5C55" stroke-width="1.8" stroke-miterlimit="10" stroke-linecap="round" stroke-linejoin="round"/>
<path d="M91.7426 333.482H112.543C113.343 333.482 114.043 332.782 114.043 331.982C114.043 331.182 113.343 330.482 112.543 330.482H91.7426C90.9426 330.482 90.2426 331.182 90.2426 331.982C90.2426 332.782 90.8426 333.482 91.7426 333.482Z" fill="#4F5C55"/>
<path d="M172.743 359.582H262.943C265.243 359.582 267.143 357.682 267.143 355.382V327.982C267.143 325.682 265.243 323.782 262.943 323.782H172.743C170.443 323.782 168.543 325.682 168.543 327.982V355.382C168.543 357.682 170.443 359.582 172.743 359.582Z" stroke="#4F5C55" stroke-width="1.8" stroke-miterlimit="10" stroke-linecap="round" stroke-linejoin="round"/>
<path d="M207.543 333.482H228.343C229.143 333.482 229.843 332.782 229.843 331.982C229.843 331.182 229.143 330.482 228.343 330.482H207.543C206.743 330.482 206.043 331.182 206.043 331.982C206.043 332.782 206.643 333.482 207.543 333.482Z" fill="#4F5C55"/>
<path d="M635.143 281.482H725.343C727.643 281.482 729.543 279.582 729.543 277.282V249.882C729.543 247.582 727.643 245.682 725.343 245.682H635.143C632.843 245.682 630.943 247.582 630.943 249.882V277.282C630.943 279.582 632.843 281.482 635.143 281.482Z" stroke="#4F5C55" stroke-width="1.8" stroke-miterlimit="10" stroke-linecap="round" stroke-linejoin="round"/>
<path d="M669.843 255.282H690.643C691.443 255.282 692.143 254.582 692.143 253.782C692.143 252.982 691.443 252.282 690.643 252.282H669.843C669.043 252.282 668.343 252.982 668.343 253.782C668.343 254.682 669.043 255.282 669.843 255.282Z" fill="#4F5C55"/>
<path d="M635.143 327.282H725.343C727.643 327.282 729.543 325.382 729.543 323.082V295.682C729.543 293.382 727.643 291.482 725.343 291.482H635.143C632.843 291.482 630.943 293.382 630.943 295.682V322.982C630.943 325.382 632.843 327.282 635.143 327.282Z" stroke="#4F5C55" stroke-width="1.8" stroke-miterlimit="10" stroke-linecap="round" stroke-linejoin="round"/>
<path d="M669.843 301.082H690.643C691.443 301.082 692.143 300.382 692.143 299.582C692.143 298.782 691.443 298.082 690.643 298.082H669.843C669.043 298.082 668.343 298.782 668.343 299.582C668.343 300.482 669.043 301.082 669.843 301.082Z" fill="#4F5C55"/>
<path d="M-74.3575 212.082H380.643C383.143 212.082 385.243 209.982 385.243 207.482V127.782C385.243 125.282 383.143 123.182 380.643 123.182H-74.3575C-76.8575 123.182 -78.9575 125.282 -78.9575 127.782V207.482C-78.9575 210.082 -76.8575 212.082 -74.3575 212.082Z" stroke="#4F5C55" stroke-width="1.8" stroke-miterlimit="10" stroke-linecap="round" stroke-linejoin="round"/>
<path d="M-74.3575 311.082H380.643C383.143 311.082 385.243 308.982 385.243 306.482V226.782C385.243 224.282 383.143 222.182 380.643 222.182H-74.3575C-76.8575 222.182 -78.9575 224.282 -78.9575 226.782V306.482C-78.9575 308.982 -76.8575 311.082 -74.3575 311.082Z" stroke="#4F5C55" stroke-width="1.8" stroke-miterlimit="10" stroke-linecap="round" stroke-linejoin="round"/>
<path d="M344.774 212.103H354.674V161.803H344.774V212.103Z" stroke="#4F5C55" stroke-width="1.8" stroke-miterlimit="10" stroke-linecap="round" stroke-linejoin="round"/>
<path d="M334.431 212.117H344.731V175.517H334.431V212.117Z" stroke="#4F5C55" stroke-width="1.8" stroke-miterlimit="10" stroke-linecap="round" stroke-linejoin="round"/>
<path d="M46.3962 310.943H56.2962L56.2962 260.643H46.3962L46.3962 310.943Z" stroke="#4F5C55" stroke-width="1.8" stroke-miterlimit="10" stroke-linecap="round" stroke-linejoin="round"/>
<path d="M36.0534 310.958H46.3534L46.3534 274.358H36.0534L36.0534 310.958Z" stroke="#4F5C55" stroke-width="1.8" stroke-miterlimit="10" stroke-linecap="round" stroke-linejoin="round"/>
<path d="M66.482 310.943H76.382V260.643H66.482V310.943Z" stroke="#4F5C55" stroke-width="1.8" stroke-miterlimit="10" stroke-linecap="round" stroke-linejoin="round"/>
<path d="M91.3755 310.433L100.816 307.453L85.6708 259.487L76.2301 262.467L91.3755 310.433Z" stroke="#4F5C55" stroke-width="1.8" stroke-miterlimit="10" stroke-linecap="round" stroke-linejoin="round"/>
<path d="M56.2391 310.958H66.5391V274.358H56.2391L56.2391 310.958Z" stroke="#4F5C55" stroke-width="1.8" stroke-miterlimit="10" stroke-linecap="round" stroke-linejoin="round"/>
<path d="M46.5425 168.382L45.4425 153.482C45.3425 152.482 46.1426 151.682 47.1426 151.682H51.4425H55.7425C56.7425 151.682 57.4425 152.482 57.4425 153.482L56.3425 168.382C56.3425 168.382 65.3425 174.182 65.2425 178.982C65.1425 182.682 62.9425 200.382 61.9425 208.182C61.6425 210.382 59.8426 211.982 57.6426 211.982H51.4425H45.2425C43.0425 211.982 41.2425 210.382 40.9425 208.182C39.9425 200.382 37.7426 182.682 37.6426 178.982C37.5426 174.182 46.5425 168.382 46.5425 168.382Z" fill="#4F5C55"/>
<path d="M685.643 405.382H-270.157" stroke="#4F5C55" stroke-width="1.8" stroke-miterlimit="10" stroke-linecap="round" stroke-linejoin="round"/>
<path d="M249.443 311.082H166.243C163.543 311.082 161.343 308.882 161.343 306.182V292.982C161.343 290.282 163.543 288.082 166.243 288.082H249.443C252.143 288.082 254.343 290.282 254.343 292.982V306.082C254.343 308.882 252.143 311.082 249.443 311.082Z" stroke="#4F5C55" stroke-width="1.8" stroke-miterlimit="10" stroke-linecap="round" stroke-linejoin="round"/>
<path d="M237.743 267.082H177.743V288.082H237.743V267.082Z" stroke="#4F5C55" stroke-width="1.8" stroke-miterlimit="10" stroke-linecap="round" stroke-linejoin="round"/>
<path d="M170.743 297.282C171.571 297.282 172.243 296.61 172.243 295.782C172.243 294.953 171.571 294.282 170.743 294.282C169.914 294.282 169.243 294.953 169.243 295.782C169.243 296.61 169.914 297.282 170.743 297.282Z" fill="#4F5C55"/>
</g>
<path d="M233.342 322.982H223.043L221.943 335.782H231.842L233.342 322.982Z" fill="#4E53E0"/>
<path d="M221.943 335.782L208.843 484.782C208.743 486.482 210.043 487.982 211.743 487.982C213.243 487.982 214.443 486.882 214.643 485.382L231.843 335.782H221.943V335.782Z" fill="#4F5C55"/>
<path d="M323.342 322.982H313.042L314.542 335.782H324.442L323.342 322.982Z" fill="#4F5C55"/>
<path d="M314.542 335.782L331.742 485.382C331.942 486.882 333.142 487.982 334.642 487.982C336.342 487.982 337.742 486.482 337.542 484.782L324.442 335.782H314.542V335.782Z" fill="#4F5C55"/>
<path d="M327.143 403.982H220.943V409.082H327.143V403.982Z" fill="#4F5C55"/>
<path d="M333.943 326.682H212.443C210.443 326.682 208.943 325.082 208.943 323.182V322.882C208.943 320.882 210.543 319.382 212.443 319.382H334.043C336.043 319.382 337.543 320.982 337.543 322.882V323.182C337.543 325.082 335.943 326.682 333.943 326.682Z" fill="#22272E"/>
<path d="M521.243 264.782L431.743 259.282C425.043 258.882 420.243 252.782 421.443 246.182L455.543 55.0817C456.743 48.4817 462.143 43.5817 468.743 42.8817L558.643 34.1817C565.943 33.4817 571.943 39.8817 570.743 47.1817L536.743 252.382C535.543 259.882 528.843 265.282 521.243 264.782Z" fill="#F8AB5D"/>
<path d="M516.343 264.182L426.843 258.682C420.143 258.282 415.343 252.182 416.543 245.582L450.643 54.4818C451.843 47.8818 457.243 42.9818 463.843 42.2818L553.743 33.5818C561.043 32.8818 567.043 39.2818 565.843 46.5818L531.843 251.782C530.643 259.282 523.943 264.582 516.343 264.182Z" fill="#8285E8"/>
<path d="M606.543 156.182L468.743 158.582C465.143 158.682 462.443 155.382 463.043 151.882L473.142 94.3817C473.742 91.0817 476.443 88.6817 479.743 88.3817L615.743 79.2817C620.343 78.9817 624.142 83.0817 623.342 87.6817L613.342 150.182C613.042 153.582 610.043 156.182 606.543 156.182Z" fill="#F8AB5D"/>
<path d="M591.343 248.882L453.543 242.882C450.143 242.682 447.542 239.582 448.142 236.182L458.543 177.282C459.143 173.882 462.142 171.282 465.642 171.282L601.843 170.182C606.343 170.182 609.743 174.182 609.043 178.582L598.843 242.882C598.243 246.482 594.943 249.082 591.343 248.882Z" fill="#F8AB5D"/>
<path d="M448.543 65.9818L564.143 56.7818" stroke="#F8AB5D" stroke-width="1.8" stroke-miterlimit="10" stroke-linecap="round" stroke-linejoin="round"/>
<path d="M507.343 52.0818L497.443 52.9817C496.543 53.0817 496.043 52.3817 496.143 51.3817C496.343 50.3817 497.143 49.5817 498.043 49.4817L507.943 48.5818C508.843 48.4818 509.443 49.1817 509.243 50.1817C509.043 51.1817 508.143 51.9818 507.343 52.0818Z" fill="#22272E"/>
<path d="M513.943 51.4817C513.043 51.5817 512.443 50.8817 512.643 49.8817C512.843 48.8817 513.643 48.0817 514.543 47.9817C515.443 47.8817 516.043 48.5818 515.843 49.5818C515.743 50.5818 514.843 51.4817 513.943 51.4817Z" fill="#22272E"/>
<path d="M625.343 58.2818L587.243 61.1818C585.843 61.2818 584.743 60.0818 585.043 58.7818L588.843 35.6818C589.043 34.2818 590.243 33.1818 591.643 33.0818L629.343 29.0818C630.943 28.8818 632.243 30.2817 632.043 31.8817L628.343 55.6817C627.943 57.0817 626.743 58.1818 625.343 58.2818Z" stroke="#4E53E0" stroke-width="1.8" stroke-miterlimit="10" stroke-linecap="round" stroke-linejoin="round"/>
<path d="M589.843 33.6817L606.443 44.3817C607.343 44.9817 608.543 44.9817 609.443 44.3817L631.043 29.5818" stroke="#4E53E0" stroke-width="1.8" stroke-miterlimit="10" stroke-linecap="round" stroke-linejoin="round"/>
<path d="M453.443 101.482L422.143 103.182L417.543 106.182C416.443 106.882 415.143 105.982 415.343 104.682L420.243 77.4818C420.643 75.2818 422.443 73.6818 424.643 73.4818L457.243 70.9818C459.343 70.7818 461.143 72.6818 460.743 74.7818L456.543 98.5818C456.243 100.282 454.943 101.382 453.443 101.482Z" fill="#4E53E0"/>
<path d="M426.343 81.4818L452.743 79.5818" stroke="#22272E" stroke-width="1.8" stroke-miterlimit="10" stroke-linecap="round" stroke-linejoin="round"/>
<path d="M425.143 88.1817L451.543 86.3817" stroke="#22272E" stroke-width="1.8" stroke-miterlimit="10" stroke-linecap="round" stroke-linejoin="round"/>
<path d="M423.943 94.7818L437.743 93.9818" stroke="#22272E" stroke-width="1.8" stroke-miterlimit="10" stroke-linecap="round" stroke-linejoin="round"/>
<path d="M599.142 150.082L461.343 152.482C457.743 152.582 455.042 149.282 455.642 145.782L465.743 88.2817C466.343 84.9817 469.043 82.5817 472.343 82.2817L608.342 73.1817C612.942 72.8817 616.743 76.9818 615.943 81.5818L605.943 144.082C605.543 147.482 602.642 150.082 599.142 150.082Z" fill="#22272E"/>
<path d="M497.043 106.582C496.343 110.682 492.743 114.182 489.043 114.382C485.343 114.582 482.943 111.382 483.643 107.282C484.343 103.182 487.943 99.6818 491.643 99.4818C495.343 99.2818 497.743 102.482 497.043 106.582Z" fill="#8285E8"/>
<path d="M494.443 132.882L478.043 133.382C475.843 133.482 474.043 131.482 474.443 129.282L474.743 127.482C476.043 120.082 482.443 113.782 489.143 113.582C495.843 113.282 500.343 119.182 499.043 126.682L498.643 129.282C498.243 131.282 496.543 132.782 494.443 132.882Z" fill="#8285E8"/>
<path d="M584.343 107.282L519.043 110.282C517.643 110.382 516.543 109.082 516.843 107.782L517.543 103.382C517.843 101.882 519.043 100.782 520.543 100.682L585.943 97.2818C587.343 97.1818 588.442 98.3818 588.142 99.7818L587.343 104.582C587.143 106.082 585.843 107.282 584.343 107.282Z" fill="#4E53E0"/>
<path d="M518.343 122.082L519.343 125.182L522.443 125.682L519.743 128.382L519.543 131.882L516.943 130.482L513.743 132.082L514.743 128.582L512.943 126.082L516.243 125.282L518.343 122.082Z" fill="#8285E8"/>
<path d="M533.343 121.582L534.443 124.682L537.543 125.182L534.843 127.882L534.743 131.382L531.943 129.982L528.743 131.582L529.743 128.082L527.943 125.482L531.243 124.782L533.343 121.582Z" fill="#8285E8"/>
<path d="M548.743 120.982L549.843 124.082L553.043 124.682L550.243 127.382L550.143 130.982L547.343 129.482L544.043 131.182L545.043 127.582L543.143 124.982L546.643 124.182L548.743 120.982Z" fill="#8285E8"/>
<path d="M564.443 120.382L565.543 123.582L568.843 124.082L566.043 126.882L565.943 130.482L563.043 128.982L559.643 130.682L560.743 126.982L558.743 124.482L562.243 123.682L564.443 120.382Z" fill="#8285E8"/>
<path d="M580.543 119.782L581.643 122.982L585.043 123.582L582.143 126.282L582.043 129.982L579.043 128.482L575.643 130.182L576.743 126.482L574.743 123.882L578.243 123.082L580.543 119.782Z" fill="#8285E8"/>
<path d="M583.843 242.782L446.142 236.682C442.742 236.482 440.143 233.382 440.743 229.982L451.142 171.082C451.742 167.682 454.743 165.082 458.243 165.082L594.443 163.982C598.943 163.982 602.343 167.982 601.643 172.382L591.443 236.682C590.743 240.382 587.543 242.982 583.843 242.782Z" fill="#22272E"/>
<path d="M482.343 191.682C481.643 195.882 478.043 199.282 474.243 199.182C470.543 199.082 468.143 195.682 468.843 191.482C469.543 187.282 473.143 183.982 476.843 183.982C480.643 184.082 483.143 187.482 482.343 191.682Z" fill="#8285E8"/>
<path d="M479.443 218.682L463.043 218.182C460.943 218.082 459.343 216.182 459.643 214.082L460.043 211.982C461.343 204.382 467.743 198.382 474.443 198.482C481.143 198.582 485.643 204.882 484.243 212.582L483.843 215.082C483.543 217.182 481.643 218.682 479.443 218.682Z" fill="#8285E8"/>
<path d="M569.443 197.882L504.142 196.982C502.842 196.982 501.843 195.782 502.043 194.482L502.843 189.882C503.143 188.282 504.443 187.182 506.043 187.182L571.443 187.682C572.743 187.682 573.743 188.882 573.543 190.182L572.743 195.182C572.443 196.682 571.043 197.882 569.443 197.882Z" fill="#4E53E0"/>
<path d="M503.543 209.082L504.543 212.282L507.643 212.982L504.943 215.582L504.843 219.182L502.143 217.482L498.943 218.982L499.943 215.382L498.243 212.782L501.443 212.182L503.543 209.082Z" fill="#8285E8"/>
<path d="M518.643 209.382L519.643 212.582L522.843 213.382L520.043 215.982L519.943 219.582L517.143 217.982L513.943 219.482L514.943 215.882L513.143 213.082L516.543 212.582L518.643 209.382Z" fill="#8285E8"/>
<path d="M534.043 209.782L535.043 212.982L538.343 213.782L535.543 216.382L535.343 220.082L532.543 218.382L529.243 219.882L530.343 216.282L528.443 213.482L531.843 212.982L534.043 209.782Z" fill="#8285E8"/>
<path d="M549.742 210.082L550.842 213.382L554.142 214.182L551.242 216.882L551.142 220.582L548.242 218.882L544.842 220.382L545.943 216.682L544.042 213.882L547.542 213.282L549.742 210.082Z" fill="#63737A"/>
<path d="M565.743 210.482L566.943 213.782L570.243 214.582L567.343 217.282L567.243 221.082L564.343 219.282L560.843 220.882L561.943 217.082L559.943 214.382L563.543 213.782L565.743 210.482Z" fill="#63737A"/>
<path d="M581.443 12.2818C579.943 10.5818 577.342 10.4817 575.742 11.9817C574.042 13.4817 573.943 16.0817 575.443 17.6817C576.943 19.3817 579.542 19.4817 581.142 17.9817C582.842 16.4817 582.943 13.8818 581.443 12.2818Z" fill="#22272E"/>
<path d="M576.042 2.88174L575.342 2.08175C572.942 -0.51825 568.942 -0.71826 566.342 1.68174C563.742 4.08174 563.543 8.08174 565.943 10.6817L566.642 11.4817C567.442 12.3817 568.042 13.4817 568.342 14.6817C568.542 15.5817 568.842 16.6817 569.142 17.6817C569.742 19.8817 572.342 20.6817 574.042 19.1817L578.542 15.0817L583.042 10.9817C584.742 9.48174 584.142 6.68174 582.042 5.98174C581.042 5.58174 580.042 5.28174 579.142 4.98174C577.942 4.38174 576.942 3.78174 576.042 2.88174Z" fill="#4E53E0"/>
<path d="M200.243 142.382L80.6425 162.382C76.3425 163.082 72.2425 160.082 71.6425 155.782L56.3425 46.3818C55.7425 42.0818 59.3425 38.3818 63.6425 38.8818L181.843 52.8818C185.243 53.2818 187.943 55.7818 188.643 59.1818L203.843 137.282C204.243 139.682 202.643 141.982 200.243 142.382Z" fill="#F8AB5D"/>
<path d="M205.243 140.982L85.6425 160.982C81.3425 161.682 77.2425 158.682 76.6425 154.382L61.2425 44.9818C60.6425 40.6818 64.2425 36.9818 68.5425 37.4818L186.743 51.4818C190.143 51.8818 192.843 54.3818 193.543 57.7818L208.743 135.882C209.243 138.282 207.643 140.582 205.243 140.982Z" fill="#8285E8"/>
<path d="M128.843 135.482L99.3425 138.882C97.1425 139.182 95.1425 137.582 94.8425 135.482L84.0425 63.2818C83.7425 61.2818 85.3425 59.4818 87.4425 59.6818L116.943 61.8818C118.843 61.9818 120.343 63.3818 120.643 65.2818L131.643 131.882C131.843 133.582 130.543 135.282 128.843 135.482Z" fill="#22272E"/>
<path d="M131.243 134.182L101.743 137.582C99.5425 137.882 97.5425 136.282 97.2425 134.182L86.4425 61.9818C86.1425 59.9818 87.7425 58.1818 89.8425 58.3818L119.342 60.5818C121.242 60.6818 122.743 62.0818 123.043 63.9818L134.043 130.582C134.243 132.282 133.043 133.982 131.243 134.182Z" fill="#4E53E0"/>
<path d="M102.143 63.9818L106.743 64.2818" stroke="#22272E" stroke-width="1.8" stroke-miterlimit="10" stroke-linecap="round" stroke-linejoin="round"/>
<path d="M109.143 64.4818H109.443" stroke="#22272E" stroke-width="1.8" stroke-miterlimit="10" stroke-linecap="round" stroke-linejoin="round"/>
<path d="M87.3425 67.6818L123.943 69.5818" stroke="#22272E" stroke-width="1.8" stroke-miterlimit="10" stroke-linecap="round" stroke-linejoin="round"/>
<path d="M96.4425 128.582L133.043 125.182" stroke="#22272E" stroke-width="1.8" stroke-miterlimit="10" stroke-linecap="round" stroke-linejoin="round"/>
<path d="M170.943 72.9818C171.443 75.7818 170.143 77.9818 168.043 77.8818C165.843 77.7818 163.643 75.3818 163.143 72.5818C162.643 69.6818 163.943 67.4818 166.143 67.6818C168.243 67.7818 170.343 70.1818 170.943 72.9818Z" fill="#22272E"/>
<path d="M174.843 90.8818H165.843C164.243 90.8818 162.943 89.7818 162.643 88.1818L162.343 86.5818C161.443 81.2818 163.943 77.1818 167.843 77.2818C171.743 77.3818 175.543 81.5818 176.443 86.6818L176.743 88.4818C177.043 89.7818 176.143 90.8818 174.843 90.8818Z" fill="#22272E"/>
<path d="M164.343 106.682C164.843 109.682 163.443 112.182 161.143 112.382C158.843 112.482 156.443 110.182 155.943 107.082C155.443 103.982 156.843 101.482 159.243 101.382C161.543 101.382 163.743 103.682 164.343 106.682Z" fill="#22272E"/>
<path d="M168.343 125.782L158.843 126.782C157.143 126.982 155.543 125.782 155.243 124.082L154.943 122.482C153.943 116.882 156.643 112.082 160.943 111.782C165.043 111.482 169.143 115.682 170.143 121.082L170.443 122.882C170.743 124.282 169.843 125.582 168.343 125.782Z" fill="#22272E"/>
<path d="M188.743 105.482C189.243 108.282 188.143 110.582 186.143 110.782C184.143 110.882 182.043 108.682 181.543 105.882C181.043 103.082 182.243 100.682 184.243 100.582C186.243 100.582 188.243 102.782 188.743 105.482Z" fill="#22272E"/>
<path d="M192.343 123.282L184.943 124.082C183.243 124.282 181.743 123.082 181.443 121.382L181.243 120.082C180.243 114.882 182.543 110.482 186.143 110.182C189.743 109.982 193.343 113.882 194.243 118.882L194.543 120.382C194.743 121.782 193.743 123.082 192.343 123.282Z" fill="#22272E"/>
<path d="M136.543 92.7818L145.743 92.6818" stroke="#22272E" stroke-width="1.8" stroke-linecap="round" stroke-linejoin="round"/>
<path d="M145.543 96.8818L150.743 93.4818C151.343 93.0818 151.343 92.1818 150.643 91.8818L144.243 88.5818C143.543 88.1818 142.743 88.7818 142.943 89.5818L144.143 96.2818C144.243 96.9818 144.943 97.2818 145.543 96.8818Z" fill="#22272E"/>
<path d="M375.143 434.482C375.143 434.482 376.543 448.182 377.743 455.282C378.043 457.382 385.943 459.782 393.143 458.282C402.043 456.482 402.543 451.382 402.543 451.382C402.543 451.382 400.843 427.382 400.643 425.682C400.443 423.982 376.443 428.482 375.143 434.482Z" fill="#F4C2C9"/>
<path d="M400.343 443.382C393.443 446.882 384.443 446.982 379.143 446.682C376.743 446.582 374.743 444.682 374.443 442.282C373.943 437.882 373.543 434.482 373.543 434.482C374.943 427.782 401.843 422.782 402.043 424.682C402.143 425.582 402.643 432.082 403.143 438.582C403.343 440.482 402.143 442.382 400.343 443.382Z" fill="#22272E"/>
<path d="M377.543 454.482C377.543 454.482 376.243 456.182 376.843 460.082C377.343 463.982 376.743 481.482 378.943 483.582C381.143 485.582 405.943 484.182 417.043 481.682C428.943 478.982 436.443 474.282 437.243 471.782C438.443 468.182 437.443 467.682 425.143 464.082C412.843 460.582 406.643 455.382 404.043 452.482C402.343 450.582 398.743 449.182 395.543 451.982C394.043 453.282 392.243 457.982 388.943 457.982C381.043 457.882 378.343 454.082 377.543 454.482Z" fill="#22272E"/>
<path d="M420.643 461.382C420.643 461.382 411.443 462.182 404.743 471.782" stroke="white" stroke-width="1.8" stroke-miterlimit="10" stroke-linecap="round" stroke-linejoin="round"/>
<path d="M413.043 457.882C413.043 457.882 404.643 458.682 398.843 467.282" stroke="white" stroke-width="1.8" stroke-miterlimit="10" stroke-linecap="round" stroke-linejoin="round"/>
<path d="M291.543 434.782C291.543 434.782 290.143 454.082 289.943 454.982C289.743 455.882 291.342 460.582 300.842 461.882C310.342 463.182 313.543 457.382 313.543 457.382C313.543 457.382 316.943 439.682 317.543 436.482C318.243 433.382 294.643 431.482 291.543 434.782Z" fill="#F4C2C9"/>
<path d="M319.343 436.082C319.043 437.382 318.343 440.982 317.643 444.982C317.243 447.182 315.443 448.882 313.243 449.082C304.243 450.082 296.943 448.082 292.843 446.482C290.743 445.682 289.343 443.582 289.543 441.282C289.843 437.282 290.043 433.982 290.043 433.982C293.443 430.282 320.043 432.482 319.343 436.082Z" fill="#22272E"/>
<path d="M289.943 454.282C289.943 454.282 287.543 454.882 287.343 458.982C287.143 462.982 282.443 481.782 282.643 483.782C282.843 485.682 283.943 488.282 299.043 488.082C314.143 487.882 322.543 488.682 325.343 486.282C328.243 483.882 324.343 478.382 321.543 473.382C318.643 468.382 314.543 460.882 313.843 456.782C313.843 456.782 311.443 458.382 310.543 458.482C309.643 458.582 308.743 454.282 303.143 454.282C296.643 454.282 294.343 457.882 293.743 457.782C292.943 457.682 290.743 456.082 289.943 454.282Z" fill="#22272E"/>
<path d="M294.043 466.382C294.043 466.382 305.243 462.182 315.143 466.382" stroke="white" stroke-width="1.8" stroke-miterlimit="10" stroke-linecap="round" stroke-linejoin="round"/>
<path d="M293.243 472.082C293.243 472.082 306.543 467.882 317.543 472.082" stroke="white" stroke-width="1.8" stroke-miterlimit="10" stroke-linecap="round" stroke-linejoin="round"/>
<path d="M316.943 255.582C316.943 255.582 338.143 261.382 363.543 270.382C387.543 278.882 396.943 283.882 399.543 300.582C402.143 317.282 398.943 376.782 402.143 392.482C405.343 408.182 409.043 419.282 405.943 427.382C403.843 432.982 399.543 434.582 399.543 434.582C399.543 434.582 386.643 440.082 375.143 437.482C375.143 437.482 368.743 435.982 364.943 428.882C361.143 421.782 364.843 398.882 361.943 381.782C359.043 364.782 355.843 336.482 352.343 317.582C348.843 298.582 291.843 291.082 284.543 276.182C277.143 261.282 281.043 248.182 281.043 248.182C281.043 248.182 310.543 247.582 316.943 255.582Z" fill="#22272E"/>
<path d="M302.143 274.582C302.143 274.582 302.143 270.882 301.443 267.082" stroke="#63737A" stroke-width="1.8" stroke-miterlimit="10" stroke-linecap="round" stroke-linejoin="round"/>
<path d="M400.443 311.582C399.243 311.882 397.942 312.082 396.642 312.082C387.842 312.082 380.343 304.682 379.943 295.682C379.743 289.482 382.843 283.982 387.743 281.182C394.643 285.782 398.143 291.482 399.543 300.682C399.943 303.282 400.243 307.082 400.443 311.582Z" stroke="#63737A" stroke-width="1.8" stroke-miterlimit="10" stroke-linecap="round" stroke-linejoin="round"/>
<path d="M218.243 256.882C218.243 256.882 217.443 264.282 218.143 281.182C218.843 297.682 231.443 319.282 258.443 319.582C285.443 319.882 301.343 319.582 301.343 319.582C301.343 319.582 299.243 329.182 298.243 353.682C297.243 378.082 289.843 394.982 285.043 410.282C280.843 423.682 280.843 433.082 290.543 437.582C290.543 437.582 302.743 442.382 318.143 441.482C318.143 441.482 325.543 440.882 327.743 423.182C329.943 405.482 339.343 371.282 347.043 349.282C354.743 327.382 360.843 299.082 348.943 289.482C337.043 279.882 296.543 274.082 294.443 273.082C292.343 272.082 292.643 258.582 290.143 250.282C287.743 241.782 226.343 240.182 218.243 256.882Z" fill="#22272E"/>
<path d="M347.143 349.182C354.843 327.282 360.943 298.982 349.043 289.382C337.143 279.782 296.643 273.982 294.543 272.982" stroke="#63737A" stroke-width="1.8" stroke-miterlimit="10" stroke-linecap="round" stroke-linejoin="round"/>
<path d="M294.643 272.982C294.643 272.982 284.243 270.982 280.043 271.682" stroke="#63737A" stroke-width="1.8" stroke-miterlimit="10" stroke-linecap="round" stroke-linejoin="round"/>
<path d="M220.043 292.082C223.543 290.582 228.743 286.882 231.943 277.782" stroke="#63737A" stroke-width="1.8" stroke-miterlimit="10" stroke-linecap="round" stroke-linejoin="round"/>
<path d="M301.343 319.582C301.343 319.582 303.043 314.682 306.543 311.182" stroke="#63737A" stroke-width="1.8" stroke-miterlimit="10" stroke-linecap="round" stroke-linejoin="round"/>
<path d="M355.643 312.382C353.143 317.482 347.943 320.982 341.943 320.982C333.143 320.982 325.643 313.582 325.243 304.582C324.843 295.482 331.743 288.182 340.643 288.182C345.143 288.182 349.343 290.082 352.343 293.182C355.243 297.882 356.143 304.682 355.643 312.382Z" stroke="#63737A" stroke-width="1.8" stroke-miterlimit="10" stroke-linecap="round" stroke-linejoin="round"/>
<path d="M294.643 447.182C294.643 447.182 294.343 446.382 294.643 443.982" stroke="#63737A" stroke-width="1.8" stroke-miterlimit="10" stroke-linecap="round" stroke-linejoin="round"/>
<path d="M303.343 449.082C303.343 449.082 304.343 446.882 304.343 445.582" stroke="#63737A" stroke-width="1.8" stroke-miterlimit="10" stroke-linecap="round" stroke-linejoin="round"/>
<path d="M312.543 449.082C312.543 449.082 313.643 447.382 313.943 445.982" stroke="#63737A" stroke-width="1.8" stroke-miterlimit="10" stroke-linecap="round" stroke-linejoin="round"/>
<path d="M380.543 446.682C380.543 446.682 379.643 444.682 379.343 442.582" stroke="#63737A" stroke-width="1.8" stroke-miterlimit="10" stroke-linecap="round" stroke-linejoin="round"/>
<path d="M391.643 446.082C391.643 446.082 391.943 444.682 391.343 441.582" stroke="#63737A" stroke-width="1.8" stroke-miterlimit="10" stroke-linecap="round" stroke-linejoin="round"/>
<path d="M401.443 442.582C401.443 442.582 401.943 440.682 401.343 438.282" stroke="#63737A" stroke-width="1.8" stroke-miterlimit="10" stroke-linecap="round" stroke-linejoin="round"/>
<path d="M296.443 141.082C296.443 141.082 306.343 142.782 322.143 146.482C338.043 150.082 351.743 151.582 351.743 151.582C351.743 151.582 368.043 144.282 387.343 135.982C406.643 127.582 421.243 123.082 421.243 123.082C421.243 123.082 426.243 123.482 429.143 130.782C430.543 134.382 430.643 137.482 430.443 139.582C430.343 141.182 429.443 142.482 428.143 143.382C423.743 146.282 411.643 154.382 392.643 167.482C368.443 184.182 358.343 185.382 346.343 184.882C333.043 184.282 300.043 178.882 300.043 178.882C300.043 178.882 291.143 177.182 288.043 161.282C285.143 145.382 293.343 140.482 296.443 141.082Z" fill="#8285E8"/>
<path d="M351.543 184.882C351.543 184.882 347.643 183.782 350.243 179.382C352.843 174.982 363.043 171.482 369.343 174.082C374.643 176.282 371.443 179.982 371.443 179.982" stroke="#F8AB5D" stroke-width="1.8" stroke-miterlimit="10" stroke-linecap="round" stroke-linejoin="round"/>
<path d="M415.043 125.182C415.043 125.182 414.043 130.782 416.842 136.282C420.142 142.782 424.142 144.882 425.342 145.282" stroke="#F8AB5D" stroke-width="1.8" stroke-miterlimit="10" stroke-linecap="round" stroke-linejoin="round"/>
<path d="M421.243 123.082C421.243 123.082 420.443 129.182 422.943 134.282C424.143 136.882 425.643 138.682 426.843 139.782C427.843 140.682 429.243 140.982 430.543 140.482C431.643 139.982 433.143 139.482 434.243 139.382C436.443 139.182 442.443 140.482 445.943 137.982C449.443 135.482 450.243 135.182 450.743 135.082C451.243 134.982 456.543 134.982 457.443 134.582C459.243 133.782 459.643 130.782 458.743 129.582C457.943 128.582 452.743 128.482 451.743 126.982C450.743 125.582 451.643 123.882 457.243 122.482C462.843 121.082 472.743 117.982 472.443 115.582C472.243 113.282 466.843 114.982 460.043 115.682C453.343 116.382 450.043 116.582 447.243 115.482C444.543 114.482 440.643 114.482 436.343 116.582C433.543 117.982 430.543 119.182 425.243 121.482C423.343 122.482 421.243 123.082 421.243 123.082Z" fill="#F4C2C9"/>
<path d="M458.143 122.282C458.143 122.282 459.143 125.082 459.143 127.282C459.243 129.482 456.043 135.482 453.743 136.582C451.443 137.682 449.943 136.482 448.943 134.882C447.943 133.282 445.343 123.782 450.343 122.682C455.343 121.582 457.143 121.382 458.143 122.282Z" fill="#F4C2C9"/>
<path d="M458.643 129.582C457.843 128.582 452.643 128.482 451.643 126.982C450.643 125.582 451.543 123.882 457.143 122.482C462.743 121.082 472.643 117.982 472.343 115.582" stroke="#896068" stroke-width="1.8" stroke-miterlimit="10" stroke-linecap="round" stroke-linejoin="round"/>
<path d="M449.543 116.182C449.143 116.082 445.143 116.182 443.943 116.682" stroke="#896068" stroke-width="1.8" stroke-miterlimit="10" stroke-linecap="round" stroke-linejoin="round"/>
<path d="M445.843 137.982C449.343 135.382 450.143 135.182 450.643 135.082C451.143 134.982 456.443 134.982 457.343 134.582" stroke="#896068" stroke-width="1.8" stroke-miterlimit="10" stroke-linecap="round" stroke-linejoin="round"/>
<path d="M259.643 130.482C259.643 130.482 260.743 126.382 268.243 126.782C275.743 127.182 286.643 131.082 287.343 136.682C288.143 142.282 263.143 145.382 259.643 130.482Z" fill="#22272E"/>
<path d="M313.143 175.782C312.143 144.182 296.543 141.082 296.543 141.082C296.543 141.082 279.043 138.182 257.843 138.582C236.643 138.982 220.043 142.582 211.443 154.782C203.843 165.582 187.243 213.482 191.543 226.782C195.143 237.982 205.743 240.682 224.743 237.382C223.543 244.382 222.143 249.882 222.143 249.882C230.143 255.682 247.843 261.382 274.343 261.382C297.943 261.382 309.843 253.682 309.843 253.682C308.943 246.582 314.043 207.382 313.143 175.782Z" fill="#8285E8"/>
<path d="M287.543 148.482C288.643 155.182 289.143 169.782 290.943 183.582C292.743 197.382 293.043 217.682 293.143 237.082C293.243 256.482 296.643 271.682 296.643 271.682C310.143 267.182 319.743 256.582 319.743 256.582C319.743 256.582 321.043 254.982 317.543 242.082C314.043 229.182 313.143 183.582 313.143 183.582C313.143 183.582 314.143 171.882 311.943 160.882C309.743 149.982 302.343 142.282 296.643 140.482C290.943 138.782 287.043 139.082 287.043 139.082C287.043 139.082 287.243 144.182 287.543 148.482Z" fill="#4E53E0"/>
<path d="M261.243 119.082C261.243 119.082 260.643 130.482 260.643 136.082C260.643 145.882 274.043 155.982 279.043 155.982C287.143 155.982 288.543 146.482 288.143 142.282C287.743 138.082 287.643 125.882 287.743 125.582C287.843 125.282 266.243 113.682 261.243 119.082Z" fill="#F4C2C9"/>
<path d="M266.043 125.082C267.543 137.482 277.443 143.982 288.143 143.582C288.143 143.182 288.143 142.682 288.043 142.382C287.843 140.682 287.743 137.682 287.743 134.782C280.043 138.782 270.543 132.282 266.043 125.082Z" fill="#896068"/>
<path d="M273.143 153.782C272.443 165.682 276.843 195.282 276.843 228.882C276.843 262.482 271.943 276.282 271.943 276.282C230.643 281.182 209.643 263.782 209.643 263.782C209.643 263.782 211.243 260.282 214.743 250.582C218.243 240.982 218.243 228.982 218.243 228.982C218.243 228.982 223.043 185.082 221.343 175.282C219.643 165.382 213.343 152.482 213.343 152.482C213.343 152.482 218.343 145.182 231.743 141.482C242.143 138.582 253.443 138.282 257.943 138.282L257.843 138.782C262.443 149.082 273.143 153.782 273.143 153.782Z" fill="#4E53E0"/>
<path d="M237.443 243.582C240.943 244.582 248.843 246.482 258.143 246.082C259.443 245.982 260.442 246.782 260.342 247.782C260.342 247.882 260.342 247.882 260.342 247.882C260.242 248.682 259.342 249.382 258.342 249.482C253.842 249.782 242.243 249.082 236.243 246.682C235.243 246.282 234.743 245.382 234.943 244.582C235.143 243.682 236.343 243.282 237.443 243.582Z" fill="#CEE2FF"/>
<path d="M302.943 243.282C304.943 242.782 309.443 241.782 314.343 240.082C315.043 239.882 315.843 240.482 316.043 241.482V241.582C316.243 242.382 315.943 243.082 315.443 243.282C313.143 244.182 307.343 246.282 303.643 246.482C303.043 246.482 302.443 245.982 302.143 245.182C301.943 244.282 302.243 243.482 302.943 243.282Z" fill="#CEE2FF"/>
<path d="M303.943 193.782C303.743 193.782 303.543 193.782 303.443 193.782C295.843 197.882 291.443 197.682 290.943 193.882C291.743 193.382 292.443 192.882 293.143 192.382C294.843 191.282 296.743 190.582 298.643 190.282C299.843 190.082 301.343 189.882 303.043 189.782C303.043 189.782 305.243 189.282 305.643 190.082C306.043 190.682 305.943 192.182 303.943 193.782Z" fill="#F4C2C9"/>
<path d="M354.342 228.882L297.543 228.782C295.743 228.782 294.443 227.282 294.543 225.482L298.842 181.482C299.042 179.482 300.743 178.082 302.743 178.182L359.743 181.982C361.043 182.082 362.043 183.282 361.943 184.582L357.342 226.182C357.242 227.682 355.942 228.882 354.342 228.882Z" fill="#22272E"/>
<path d="M334.943 186.882C335.043 186.182 334.643 185.682 333.943 185.682C333.243 185.682 332.643 186.282 332.543 186.882C332.443 187.482 332.843 188.082 333.543 188.082C334.243 188.082 334.743 187.482 334.943 186.882Z" fill="#63737A"/>
<path d="M283.643 217.982C283.443 218.882 282.843 219.482 281.943 219.882C277.243 221.982 259.143 229.482 236.443 234.982C232.243 235.982 228.243 236.882 224.643 237.482C205.543 240.682 195.043 238.082 191.443 226.882C187.143 213.582 203.743 165.782 211.343 154.882C211.943 153.982 212.643 153.182 213.343 152.382C223.843 144.182 234.743 152.182 237.143 165.582C238.343 172.682 235.343 180.482 232.843 189.382C231.043 195.782 226.443 206.082 226.443 206.082L278.843 200.682C279.843 200.582 280.743 200.882 281.343 201.682C286.143 206.982 284.543 214.882 283.643 217.982Z" fill="#8285E8"/>
<path d="M226.443 205.982C226.443 205.982 216.243 207.182 212.343 209.782" stroke="#F8AB5D" stroke-width="1.8" stroke-miterlimit="10" stroke-linecap="round" stroke-linejoin="round"/>
<path d="M271.743 201.282C271.743 201.282 268.943 204.482 270.043 211.182C271.243 218.482 274.443 220.482 276.643 221.982" stroke="#F8AB5D" stroke-width="1.8" stroke-miterlimit="10" stroke-linecap="round" stroke-linejoin="round"/>
<path d="M191.443 227.782C191.443 227.782 190.343 221.782 199.043 221.682C207.743 221.582 217.543 233.582 211.443 238.782" stroke="#F8AB5D" stroke-width="1.8" stroke-miterlimit="10" stroke-linecap="round" stroke-linejoin="round"/>
<path d="M323.543 208.782C322.943 210.682 318.343 208.882 314.843 207.882C310.343 206.582 307.343 205.582 307.043 205.482C307.443 205.682 310.043 206.982 315.343 210.882C318.943 213.582 321.643 216.482 320.443 217.882C319.243 219.282 312.043 215.082 312.043 215.082C312.043 215.082 314.643 216.882 315.243 218.982C315.843 220.982 312.343 220.382 305.743 216.382C305.743 216.382 303.243 216.482 298.543 218.582C293.843 220.682 286.843 219.682 284.643 218.982C283.643 218.682 282.643 218.582 281.943 218.582C280.943 218.582 279.943 218.082 279.343 217.282C278.143 215.782 276.343 213.082 275.943 209.382C275.543 205.682 276.443 203.582 277.143 202.582C277.443 202.082 277.943 201.682 278.543 201.482C279.443 201.182 280.943 200.582 282.043 199.982C282.943 199.482 286.243 197.082 289.543 194.882C290.043 194.582 290.543 194.182 290.943 193.882C293.243 193.982 300.243 194.182 303.443 193.782C303.643 193.782 303.743 193.782 303.943 193.782C308.243 193.482 319.743 194.482 320.943 195.782C322.243 197.082 320.443 198.782 315.043 198.682C311.143 198.582 306.343 199.282 306.343 199.282C306.343 199.282 310.943 200.382 315.043 202.282C319.243 204.182 324.243 206.882 323.543 208.782Z" fill="#F4C2C9"/>
<path d="M307.143 205.482C307.143 205.482 305.543 204.882 304.343 204.582C303.143 204.282 302.143 204.282 302.143 204.282" stroke="#896068" stroke-width="1.8" stroke-miterlimit="10" stroke-linecap="round" stroke-linejoin="round"/>
<path d="M312.043 215.082C312.043 215.082 308.743 211.682 304.943 210.882C303.243 210.582 302.143 210.482 302.143 210.482" stroke="#896068" stroke-width="1.8" stroke-miterlimit="10" stroke-linecap="round" stroke-linejoin="round"/>
<path d="M306.443 199.282C306.443 199.282 303.743 199.182 302.143 199.682" stroke="#896068" stroke-width="1.8" stroke-miterlimit="10" stroke-linecap="round" stroke-linejoin="round"/>
<path d="M297.743 193.982C297.743 193.982 295.943 193.982 295.343 193.782" stroke="#896068" stroke-width="1.8" stroke-miterlimit="10" stroke-linecap="round" stroke-linejoin="round"/>
<path d="M287.243 143.482C287.143 142.182 287.143 140.882 287.243 139.482C287.343 138.482 287.443 137.382 287.343 136.682V134.382C287.343 134.382 287.943 135.682 289.143 137.782C290.343 139.782 288.543 149.082 287.643 150.182L287.243 143.482Z" fill="#22272E"/>
<path d="M298.143 98.9817C298.143 98.9817 297.543 105.782 298.143 117.282C298.743 128.882 290.543 136.082 283.843 138.182C277.143 140.282 264.543 135.082 261.543 120.182C258.443 105.282 252.043 88.4817 269.443 82.3817C286.743 76.2817 298.343 84.7817 298.143 98.9817Z" fill="#F4C2C9"/>
<path d="M260.543 109.482C260.543 109.482 262.643 108.182 263.343 103.782C263.543 102.482 264.143 101.782 264.843 101.382C266.843 100.382 268.443 98.6817 268.743 96.4817C268.943 94.5817 269.743 93.1817 271.743 94.2817C287.443 103.382 297.843 95.0817 297.843 95.0817L297.943 100.782C304.043 99.0817 307.743 91.0817 306.543 85.1817C305.043 77.7817 302.243 79.1817 298.743 73.5817C295.343 67.9817 288.843 64.0817 280.643 66.9817C272.443 69.8817 269.443 71.1817 263.043 71.0817C256.743 70.9817 250.543 73.6817 250.043 79.6817C249.643 85.6817 244.043 87.4817 243.043 93.0817C242.043 98.6817 244.243 101.482 246.343 103.682C248.443 105.882 244.443 112.082 249.743 117.282C255.143 122.482 258.543 124.082 260.743 127.482C261.043 127.482 261.843 118.282 260.543 109.482Z" fill="#22272E"/>
<path d="M262.343 111.182C262.343 111.182 258.543 104.782 253.443 107.682C248.343 110.582 253.743 120.582 261.643 120.082" fill="#F4C2C9"/>
<path d="M289.643 106.282C290.043 107.382 290.543 108.282 291.143 109.082C291.443 109.482 291.743 109.782 292.043 110.082C292.343 110.282 293.043 110.882 293.343 111.482C294.043 112.782 293.943 114.182 293.443 115.282C293.243 115.882 292.843 116.382 292.443 116.782C292.043 117.182 291.543 117.582 290.943 117.682C291.643 116.782 291.943 115.782 292.043 114.882C292.143 113.982 292.043 112.982 291.743 112.382C291.543 111.982 291.343 111.882 290.843 111.382C290.443 110.882 290.043 110.382 289.843 109.782C289.443 108.582 289.343 107.382 289.643 106.282Z" fill="#22272E"/>
<path d="M284.243 125.982C284.243 125.982 280.143 126.582 277.543 122.582" stroke="#22272E" stroke-width="1.8" stroke-miterlimit="10" stroke-linecap="round" stroke-linejoin="round"/>
<path d="M278.543 110.482C277.743 110.482 277.143 109.882 277.143 109.082V107.682C277.143 106.882 277.743 106.282 278.543 106.282C279.343 106.282 279.943 106.882 279.943 107.682V109.082C279.943 109.882 279.243 110.482 278.543 110.482Z" fill="#22272E"/>
<path d="M294.043 110.482C293.243 110.482 292.643 109.882 292.643 109.082V107.682C292.643 106.882 293.243 106.282 294.043 106.282C294.843 106.282 295.443 106.882 295.443 107.682V109.082C295.443 109.882 294.743 110.482 294.043 110.482Z" fill="#22272E"/>
<path d="M280.543 103.182C279.543 103.582 278.843 102.382 277.343 102.782C275.043 103.482 273.943 104.282 273.543 103.282C273.243 102.582 274.643 100.782 276.843 100.182C280.043 99.4817 282.343 102.482 280.543 103.182Z" fill="#22272E"/>
<path d="M292.143 103.182C292.943 103.482 293.543 102.382 294.643 102.682C296.143 103.182 296.943 103.782 297.143 102.982C297.343 102.382 296.543 100.782 295.043 100.282C292.643 99.4817 290.543 102.582 292.143 103.182Z" fill="#22272E"/>
<path d="M254.243 111.882C254.343 111.482 254.643 111.082 255.043 110.882C255.443 110.582 255.943 110.382 256.543 110.482C257.143 110.582 257.643 110.982 257.943 111.382C258.243 111.782 258.443 112.182 258.643 112.582C258.943 113.382 259.143 114.182 259.243 114.782C259.343 115.082 259.343 115.282 259.543 115.482C259.743 115.682 260.143 115.882 260.543 115.982C260.143 116.182 259.743 116.382 259.243 116.282C258.743 116.182 258.243 115.782 257.943 115.382C257.443 114.582 257.143 113.882 256.943 113.282C256.843 112.982 256.643 112.582 256.543 112.382C256.443 112.182 256.343 111.982 256.143 111.882C255.843 111.482 255.043 111.582 254.243 111.882Z" fill="#22272E"/>
<path d="M263.243 173.582C263.643 177.382 261.143 181.482 257.543 181.782C253.943 182.182 250.742 179.382 250.342 175.582C249.942 171.782 252.543 168.382 256.143 168.082C259.843 167.682 262.943 169.782 263.243 173.582Z" fill="#8285E8"/>
<path d="M273.143 153.782C273.143 153.782 262.443 149.082 257.743 138.682L259.643 130.482C259.643 130.482 262.643 136.882 269.443 140.382C271.743 141.582 273.243 143.882 273.343 146.482C273.443 148.582 273.343 151.282 273.143 153.782Z" fill="#22272E"/>
<path d="M142.043 212.282C142.043 215.382 139.543 217.782 136.543 217.782C133.543 217.782 131.043 215.282 131.043 212.282C131.043 209.182 133.543 206.782 136.543 206.782C139.543 206.782 142.043 209.182 142.043 212.282Z" fill="#22272E"/>
<path d="M142.043 231.582H131.043C128.543 231.582 126.543 229.582 126.543 227.082C126.543 221.582 131.043 217.082 136.543 217.082C142.043 217.082 146.543 221.582 146.543 227.082C146.543 229.582 144.543 231.582 142.043 231.582Z" fill="#22272E"/>
<path d="M108.543 219.182C108.543 234.582 121.043 247.182 136.543 247.182C145.743 247.182 153.943 242.682 159.043 235.882" stroke="#4E53E0" stroke-width="1.8" stroke-linecap="round" stroke-linejoin="round"/>
<path d="M162.043 239.182L162.243 230.182L154.343 234.482L162.043 239.182Z" fill="#4E53E0"/>
<path d="M164.443 219.182C164.443 203.782 151.943 191.182 136.443 191.182C126.843 191.182 118.343 195.982 113.343 203.382" stroke="#4E53E0" stroke-width="1.8" stroke-linecap="round" stroke-linejoin="round"/>
<path d="M110.243 200.182L110.443 209.082L118.143 204.482L110.243 200.182Z" fill="#4E53E0"/>
</g>
</svg>
