<?xml version="1.0" encoding="utf-8"?>
<!-- Generator: Adobe Illustrator 24.0.1, SVG Export Plug-In . SVG Version: 6.00 Build 0)  -->
<svg version="1.1" id="Layer_1" xmlns="http://www.w3.org/2000/svg" xmlns:xlink="http://www.w3.org/1999/xlink" x="0px" y="0px"
	 viewBox="0 0 504 504" enable-background="new 0 0 504 504" xml:space="preserve">
<path fill="#61B5E5" d="M238.9,206.27c-0.14,3.79-0.28,7.58-0.42,11.37c0.78,0.06,1.56,0.12,2.34,0.18c0,6.75,0,13.5,0,20.25
	c0.98,0.61,2.4,1.38,4.23,1.98c1.18,0.39,3.73,1.1,8.37,0.9c2.87-0.13,7.24-0.64,12.42-2.52c0.3-6.09,0.6-12.18,0.9-18.27
	c0.26-0.7,0.62-1.78,0.9-3.15c0.41-2.01,0.36-3.32,0.45-6.75c0.03-1.08,0.08-2.7,0.18-4.68c-0.45-0.79-1.28-2.03-2.7-3.15
	c-1.51-1.19-3-1.72-3.89-1.96c-0.95,1.61-2.62,3.87-5.38,5.56C248.65,210.72,239.81,206.71,238.9,206.27z"/>
<path fill="#F4DCC4" d="M268.01,213.13c-0.06,4.82-0.26,9.87-0.65,15.13c-0.24,3.3-0.54,6.51-0.89,9.62
	c-0.69,0.12-1.39,0.25-2.08,0.37c0.48-0.87,0.96-1.74,1.44-2.61c0.3-5.16,0.6-10.32,0.9-15.48c0.3-1.05,0.6-2.1,0.9-3.15
	C267.76,215.72,267.89,214.42,268.01,213.13z"/>
<path fill="#F3DAC4" d="M260.66,200.79c-1.02-0.43-2.04-0.87-3.06-1.3c-0.02-0.92-0.03-1.83-0.05-2.75
	c0.73,0.01,1.46,0.03,2.18,0.04c0.3-0.09,0.74-0.26,1.17-0.61c0.91-0.73,1.16-1.75,1.3-2.32c0.1-0.41,0.21-1.06,0.14-1.87
	c0.16-0.21,0.33-0.42,0.49-0.63c0.08-0.29,0.15-0.68,0.16-1.13c0-0.25-0.02-0.48-0.05-0.67c0-1.81,0-3.62,0-5.42
	c-3.39-1.35-6.58-0.81-8.03,0.29c-1.49,1.13-2.27,2.81-2.27,2.81c-0.09,0.2-0.16,0.36-0.18,0.43c-3.27,8.42-5.36,12.13-4,15.84
	c0.13,0.36,1.15,3.04,3.8,4.16c2.85,1.21,5.94-0.06,7.65-1.53c0.6-0.51,2.41-2.09,2-3.76C261.72,201.57,261.07,201.05,260.66,200.79
	z"/>
<path fill="#4D2E1B" d="M263.41,178.57c-1.16-0.02-1.44,0.7-2.61,1.09c-2.21,0.72-3.22-1.18-6.21-1.17
	c-2.54,0.01-4.37,1.39-4.77,1.71c-0.44,0.35-2.35,1.93-2.82,4.51c-0.39,2.12,0.6,2.65,0.39,5.03c-0.19,2.05-1.09,3.49-1.89,4.77
	c-1.14,1.83-2.53,3.09-5.31,5.49c-3.35,2.89-3.82,3.07-4.41,4.23c-0.22,0.44-1.82,3.71-0.18,6.12c1.22,1.79,3.5,2.04,4.59,2.16
	c3.61,0.39,6.32-1.64,7.02-2.16c0.72-0.54,2.65-2.14,3.69-4.86c1.03-2.7,0.9-5.81,0.81-7.92c-0.06-1.52-0.25-3.18,0.72-4.77
	c0.43-0.7,1.03-1.3,1.26-1.53c1.34-1.34,2.13-1.38,2.88-2.25c0.49-0.57,1.02-1.55,0.99-3.33c-0.02-0.14-0.1-0.73,0.27-1.17
	c0.4-0.48,1.06-0.46,1.44-0.45c0.65,0.02,1.13,0.28,1.44,0.45c0.8,0.45,0.81,0.78,1.44,1.17c0.1,0.06,0.99,0.59,2.07,0.45
	c1.64-0.21,2.48-1.73,2.52-1.8c0.81-1.52,0.22-3.29-0.63-4.32C265.92,179.79,264.89,178.6,263.41,178.57z"/>
<path fill="#FFFFFF" d="M251.21,204.52c-0.19,0.69-0.51,1.57-1.05,2.51c-0.45,0.77-0.93,1.39-1.35,1.85
	c0.37,0.43,1.09,1.12,2.18,1.38c1.8,0.42,3.85-0.54,5.13-2.43c1.01,1.06,1.88,1.09,2.16,1.08c1.53-0.05,2.57-1.84,3.33-3.15
	c0.11-0.2,0.61-1.07,0.99-2.34c0.29-0.96,0.4-1.8,0.45-2.43c-1.11-0.42-2.22-0.84-3.33-1.26c0.02,0.49,0.01,2.13-1.17,3.51
	c-0.77,0.89-1.66,1.25-2.16,1.44C254.1,205.55,251.95,204.82,251.21,204.52z"/>
<polygon fill="#FFFFFF" points="251.52,219.71 252.78,240.99 266.55,239.69 265.56,217.64 "/>
<path fill="#F4DCC4" d="M238.47,217.64c2.43,0.03,4.86,0.06,7.29,0.09c-0.9,4.67-0.38,8.17,0.09,10.17c0.46,1.94,0.99,2.97,1.8,3.78
	c1.42,1.44,3.2,1.7,5.31,1.98c1.66,0.22,6.76,0.9,11.25-2.25c0.9-0.64,1.56-1.27,1.98-1.71c0.06-0.02,0.95-0.31,1.53,0.18
	c0.59,0.5,0.67,1.66-0.09,2.52c-0.88,0.81-2.2,1.91-3.96,2.97c-1.58,0.95-6.16,3.62-12.42,3.42c-2.6-0.08-5.41-0.17-8.01-2.16
	c-2.52-1.92-3.53-4.63-3.87-5.58c-0.29-0.8-0.58-1.85-0.81-4.77C238.4,224.16,238.27,221.22,238.47,217.64z"/>
<path fill="#101824" d="M240.03,312.14c1.34,0.03,2.68,0.06,4.02,0.09c-0.06,4.59-0.11,9.18-0.17,13.77
	c-0.34-0.02-1.74-0.13-2.89-1.26c-0.99-0.98-1.21-2.14-1.26-2.52c-0.15-1.14-0.26-2.41-0.27-3.78
	C239.44,316.03,239.69,313.9,240.03,312.14z"/>
<path fill="#101824" d="M262.05,314.57c-0.06,1.41-0.12,2.82-0.18,4.23c2.25,1.86,4.5,3.72,6.75,5.58c0.61,0.65,1.54,0.64,1.98,0.18
	c0.31-0.32,0.37-0.86,0.18-1.35c-0.84-0.8-2.02-2.13-2.97-4.05c-0.85-1.73-1.2-3.32-1.35-4.41
	C264.99,314.69,263.52,314.63,262.05,314.57z"/>
<path fill="#546777" d="M239.01,312.23c0.28-7.04,0.82-21.76,0.9-36.36c0.05-9.18,0.07-13.77-0.22-16.52
	c-0.43-4.01-1.07-7.35-0.66-12.32c0.32-3.84,1.14-6.94,1.78-8.96c2.4,1.05,5.76,2.2,9.9,2.7c6.23,0.75,11.34-0.34,14.4-1.26
	c0.63,1.54,1.48,3.83,2.19,6.71c0,0,0.4,1.65,0.69,3.37c2.48,14.62,0.72,40.68,0.72,40.68c-0.66,9.75-1.29,18.07-1.8,24.48
	c-1.62-0.06-3.24-0.12-4.86-0.18c-0.67-4.37-1.22-8.99-1.62-13.86c-0.79-9.68-0.79-18.62-0.36-26.64c-1.74-7.8-3.48-15.6-5.22-23.4
	c-0.02-0.02-1.8-1.26-1.8-1.26l-1.08,1.44c-0.36,9.12-0.72,18.24-1.08,27.36c-0.42,1.92-0.84,3.84-1.26,5.76
	c-0.36,2.11-1.44,8.33-1.8,10.44c-0.91,5.25-2.19,12.65-3.1,17.91C242.83,312.29,240.92,312.26,239.01,312.23z"/>
</svg>
