<svg xmlns="http://www.w3.org/2000/svg" version="1.1" xmlns:xlink="http://www.w3.org/1999/xlink" xmlns:svgjs="http://svgjs.com/svgjs" width="900" height="600" preserveAspectRatio="none" viewBox="0 0 900 600"><g mask="url(&quot;#SvgjsMask1054&quot;)" fill="none"><path d="M18.784,543.117C35.229,542.685,47.992,530.669,56.369,516.511C64.942,502.022,70.205,484.556,62.193,469.75C53.864,454.359,36.282,446.824,18.784,447.058C1.706,447.286,-14.143,456.079,-22.663,470.882C-31.164,485.651,-30.864,503.799,-22.383,518.58C-13.862,533.431,1.668,543.566,18.784,543.117" fill="rgba(171, 191, 247, 1)" class="triangle-float1"></path><path d="M436.199,369.534C470.253,368.327,489.153,333.753,505.211,303.699C520.011,276,532.608,244.435,517.856,216.71C502.391,187.645,469.106,175.033,436.199,173.996C401.056,172.889,362.72,180.832,345.115,211.267C327.493,241.732,340.604,278.407,358.159,308.911C375.769,339.51,400.916,370.785,436.199,369.534" fill="rgba(171, 191, 247, 1)" class="triangle-float3"></path><path d="M181.629,525.724C228.834,525.447,281.915,521.415,305.864,480.735C330.035,439.678,309.419,390.24,285.722,348.909C261.857,307.285,229.514,267.073,181.629,264.051C129.078,260.734,78.444,288.632,51.985,334.158C25.401,379.898,25.187,438.396,54.838,482.21C81.68,521.872,133.739,526.005,181.629,525.724" fill="rgba(171, 191, 247, 1)" class="triangle-float3"></path><path d="M539.176,590.345C556.561,590.194,574.022,584.038,582.975,569.134C592.171,553.825,591.852,534.013,581.94,519.157C572.909,505.621,555.445,503.175,539.176,503.485C523.606,503.782,507.896,507.854,499.143,520.734C489.215,535.343,485.229,554.597,494.035,569.909C502.86,585.255,521.474,590.499,539.176,590.345" fill="rgba(171, 191, 247, 1)" class="triangle-float1"></path><path d="M282.601,192.084C312.221,193.478,344.171,185.058,358.85,159.293C373.425,133.71,362.934,102.885,347.812,77.621C333.199,53.208,311.028,33.099,282.601,31.909C252.161,30.635,221.593,44.884,207.194,71.734C193.412,97.433,202.361,127.948,217.844,152.659C232.225,175.612,255.545,190.811,282.601,192.084" fill="rgba(171, 191, 247, 1)" class="triangle-float2"></path><path d="M851.239,322.24C885.528,321.442,910.598,292.904,926.327,262.425C940.603,234.76,942.913,202.089,927.072,175.29C911.494,148.937,881.834,136.436,851.239,135.397C818.392,134.282,783.305,141.923,765.928,169.819C747.732,199.03,753.034,236.035,769.843,266.066C787.1,296.898,815.916,323.062,851.239,322.24" fill="rgba(171, 191, 247, 1)" class="triangle-float2"></path></g><defs><mask id="SvgjsMask1054"><rect width="900" height="600" fill="#ffffff"></rect></mask><style>
            @keyframes float1 {
                0%{transform: translate(0, 0)}
                50%{transform: translate(-10px, 0)}
                100%{transform: translate(0, 0)}
            }

            .triangle-float1 {
                animation: float1 5s infinite;
            }

            @keyframes float2 {
                0%{transform: translate(0, 0)}
                50%{transform: translate(-5px, -5px)}
                100%{transform: translate(0, 0)}
            }

            .triangle-float2 {
                animation: float2 4s infinite;
            }

            @keyframes float3 {
                0%{transform: translate(0, 0)}
                50%{transform: translate(0, -10px)}
                100%{transform: translate(0, 0)}
            }

            .triangle-float3 {
                animation: float3 6s infinite;
            }
        </style></defs></svg>