<svg xmlns="http://www.w3.org/2000/svg" version="1.1" xmlns:xlink="http://www.w3.org/1999/xlink" xmlns:svgjs="http://svgjs.com/svgjs" width="400" height="900" preserveAspectRatio="none" viewBox="0 0 400 900">
  <g mask="url(&quot;#SvgjsMask1001&quot;)" fill="none">
    <path d="M370.689,854.333C399.391,854.533,427.51,840.107,440.453,814.488C452.431,790.779,442.083,763.635,427.84,741.214C414.844,720.757,394.893,705.921,370.689,704.669C344.035,703.291,316.448,712.094,302.293,734.721C287.362,758.59,288.618,789.085,302.593,813.525C316.672,838.146,342.328,854.135,370.689,854.333" fill="rgba(233, 239, 255, 1)" class="triangle-float1"></path>
    <path d="M183.57,349.408C217.733,346.563,236.374,313.528,253.762,283.984C271.539,253.779,293.315,220.463,278.016,188.93C261.378,154.637,221.667,138.1,183.57,139.311C147.48,140.458,117.392,163.559,98.98,194.62C80.136,226.41,71.995,265.216,89.717,297.644C108.08,331.246,145.41,352.586,183.57,349.408" fill="rgba(233, 239, 255, 1)" class="triangle-float1"></path>
    <path d="M255.671,472.723C278.671,471.02,298.163,457.161,309.487,437.069C320.588,417.373,321.253,394.17,311.415,373.814C299.969,350.132,281.955,326.707,255.671,325.72C228.167,324.687,205.943,345.507,192.169,369.335C178.38,393.188,171.601,422.733,186.021,446.21C199.956,468.897,229.119,474.689,255.671,472.723" fill="rgba(233, 239, 255, 1)" class="triangle-float3"></path>
    <path d="M-93.27 513.44 a103.12 103.12 0 1 0 206.24 0 a103.12 103.12 0 1 0 -206.24 0z" fill="rgba(233, 239, 255, 1)" class="triangle-float3"></path>
    <path d="M186.043,700C204.427,700.416,221.131,689.902,230.517,674.089C240.111,657.925,242.615,637.44,232.626,621.517C223.122,606.367,203.921,602.713,186.043,603.192C169.175,603.644,152.236,609.411,143.594,623.904C134.762,638.716,136.52,657.094,144.921,672.154C153.565,687.649,168.305,699.599,186.043,700" fill="rgba(233, 239, 255, 1)" class="triangle-float3"></path>
    <path d="M33.28 878.57 a71.65 71.65 0 1 0 143.3 0 a71.65 71.65 0 1 0 -143.3 0z" fill="rgba(233, 239, 255, 1)" class="triangle-float1"></path>
    <path d="M282.158,489.696C294.85,489.05,304.088,479.001,310.263,467.894C316.224,457.172,318.952,444.577,313.297,433.69C307.211,421.973,295.358,414.05,282.158,413.79C268.517,413.522,255.72,420.65,248.822,432.422C241.848,444.324,241.678,459.11,248.617,471.033C255.515,482.885,268.463,490.393,282.158,489.696" fill="rgba(233, 239, 255, 1)" class="triangle-float1"></path>
    <path d="M-38.7 796.15 a98.89 98.89 0 1 0 197.78 0 a98.89 98.89 0 1 0 -197.78 0z" fill="rgba(233, 239, 255, 1)" class="triangle-float2"></path>
  </g>
  <defs>
    <mask id="SvgjsMask1001">
      <rect width="400" height="900" fill="#ffffff"></rect>
    </mask>
    <style>
      @keyframes float1 {
        0% {
          transform: translate(0, 0)
        }

        50% {
          transform: translate(-10px, 0)
        }

        100% {
          transform: translate(0, 0)
        }
      }

      .triangle-float1 {
        animation: float1 5s infinite;
      }

      @keyframes float2 {
        0% {
          transform: translate(0, 0)
        }

        50% {
          transform: translate(-5px, -5px)
        }

        100% {
          transform: translate(0, 0)
        }
      }

      .triangle-float2 {
        animation: float2 4s infinite;
      }

      @keyframes float3 {
        0% {
          transform: translate(0, 0)
        }

        50% {
          transform: translate(0, -10px)
        }

        100% {
          transform: translate(0, 0)
        }
      }

      .triangle-float3 {
        animation: float3 6s infinite;
      }
    </style>
  </defs>
</svg>