<svg id="visual" viewBox="0 0 900 600" width="900" height="600" xmlns="http://www.w3.org/2000/svg" xmlns:xlink="http://www.w3.org/1999/xlink" version="1.1"><rect x="0" y="0" width="900" height="600" fill="#f8f9f9"></rect><g transform="translate(20.234128324204704 -156.43101234022114)"><path d="M152.1 -215.2C218.2 -225.3 307.4 -227.1 318.6 -189.9C329.8 -152.7 262.9 -76.3 243 -11.5C223 53.3 250.1 106.7 273.7 204.1C297.3 301.5 317.4 443 271.2 500.4C225 557.7 112.5 530.9 2.4 526.7C-107.7 522.5 -215.3 541 -282.3 495.6C-349.3 450.3 -375.6 341.2 -351.6 247.9C-327.6 154.7 -253.3 77.3 -261.4 -4.7C-269.4 -86.7 -359.9 -173.3 -349.1 -206.2C-338.2 -239.2 -226.1 -218.3 -151.1 -203.1C-76 -187.9 -38 -178.3 2.5 -182.7C43 -187 86 -205.2 152.1 -215.2" fill="#c8cbf9"></path></g></svg>