<svg id="visual" viewBox="0 0 900 600" width="900" height="600" xmlns="http://www.w3.org/2000/svg" xmlns:xlink="http://www.w3.org/1999/xlink" version="1.1"><rect x="0" y="0" width="900" height="600" fill="#f8f9f9"></rect><g transform="translate(96.95242231573192 541.6879797815549)"><path d="M36.3 -84.5C49.6 -55.2 64.6 -50.6 87 -40.6C109.4 -30.7 139.2 -15.3 181.1 24.2C222.9 63.7 276.9 127.3 288.2 195.7C299.5 264.2 268.3 337.3 213.1 365.3C158 393.3 79 376.2 34 317.2C-10.9 258.3 -21.9 157.6 -94.8 139.8C-167.7 122.1 -302.5 187.3 -384.5 177.8C-466.6 168.3 -495.8 84.2 -480.5 8.8C-465.2 -66.5 -405.4 -133 -345.4 -180.8C-285.5 -228.6 -225.5 -257.6 -167.9 -261.4C-110.3 -265.1 -55.2 -243.6 -21.8 -205.7C11.5 -167.9 23 -113.8 36.3 -84.5" fill="#c8cbf9"></path></g></svg>