<svg id="visual" viewBox="0 0 900 600" width="900" height="600" xmlns="http://www.w3.org/2000/svg" xmlns:xlink="http://www.w3.org/1999/xlink" version="1.1"><rect x="0" y="0" width="900" height="600" fill="#f8f9f9"></rect><g transform="translate(-114.52556774476861 650.6675197549318)"><path d="M271 -483.3C334.4 -432.9 357.3 -326.2 417.9 -236.3C478.5 -146.3 576.7 -73.2 544.1 -18.8C511.5 35.5 348 71 242.5 83.2C137 95.4 89.6 84.2 58.9 163C28.1 241.7 14.1 410.4 -3.5 416.4C-21 422.4 -42 265.7 -97.7 201.4C-153.4 137.1 -243.9 165 -250 146.9C-256.2 128.7 -178.1 64.3 -193.4 -8.8C-208.7 -82 -317.4 -164 -321.4 -199.8C-325.4 -235.6 -224.7 -225.2 -153.7 -271.2C-82.7 -317.2 -41.3 -419.6 31.2 -473.7C103.8 -527.8 207.7 -533.7 271 -483.3" fill="#c8cbf9"></path></g></svg>