<svg id="visual" viewBox="0 0 900 600" width="900" height="600" xmlns="http://www.w3.org/2000/svg" xmlns:xlink="http://www.w3.org/1999/xlink" version="1.1"><rect x="0" y="0" width="900" height="600" fill="#f8f9f9"></rect><g transform="translate(838.4053905622573 -8.575129439274775)"><path d="M253.2 -403.9C321.8 -399 366.6 -318.3 432.9 -238.3C499.2 -158.3 587.1 -79.2 607.6 11.8C628.1 102.8 581.2 205.7 512.6 281.7C444.1 357.8 353.8 407.1 264.7 418.5C175.7 429.9 87.8 403.5 6.1 392.9C-75.7 382.4 -151.3 387.8 -181.5 342.4C-211.7 297 -196.3 200.7 -267.2 135.2C-338 69.7 -495 34.8 -489.1 3.4C-483.2 -28 -314.3 -56 -219.7 -80.4C-125.1 -104.7 -104.8 -125.4 -80.5 -155.9C-56.3 -186.4 -28.1 -226.7 32.1 -282.3C92.3 -337.9 184.7 -408.9 253.2 -403.9" fill="#c8cbf9"></path></g></svg>