<svg id="Layer_1" data-name="Layer 1" xmlns="http://www.w3.org/2000/svg" viewBox="0 0 122.88 92.77"><defs><style>.cls-1{fill-rule:evenodd;}</style></defs><title>computer</title><path class="cls-1" d="M90.11,21.7h28.81a4,4,0,0,1,4,4V86.93a4,4,0,0,1-4,4H90.11a4,4,0,0,1-4-4V25.65a4,4,0,0,1,4-3.95ZM3,0H106.55a3.05,3.05,0,0,1,3,3v7.85h-4V7a2.69,2.69,0,0,0-2.69-2.69H6.67A2.69,2.69,0,0,0,4,7V61.87a2.7,2.7,0,0,0,2.68,2.69H76.1v11.6H3a3,3,0,0,1-3-3V3A3.05,3.05,0,0,1,3,0ZM41,80.36H68.59c.07,4.77,2,9,7.36,12.41H33.64C37.93,89.66,41,85.91,41,80.36Zm73.23-42.28h2.87v1.64h-2.87V38.08Zm-9.72,36.43a4.31,4.31,0,1,1-4.31,4.3,4.31,4.31,0,0,1,4.31-4.3Zm-13-40.18h26a.82.82,0,0,1,.82.82v4.47a.83.83,0,0,1-.82.83h-26a.82.82,0,0,1-.82-.82V35.15a.82.82,0,0,1,.82-.82Z"/></svg>