<?xml version="1.0"?>
<svg version="1.1" xmlns="http://www.w3.org/2000/svg" width="400" height="200" style="border: dashed 2px #aaa"><path fill="#ffffff" d="M30.24,112.576c0,0.24-0.12,0.384-0.432,0.384l-2.136,0c-0.504,0-0.672-0.192-0.816-0.576l-1.248-3.528l-6.072,0l-1.248,3.6c-0.096,0.312-0.264,0.504-0.648,0.504l-2.136,0c-0.24,0-0.336-0.12-0.336-0.312c0-0.072,0-0.168,0.048-0.264l5.856-15.552c0.12-0.288,0.288-0.48,0.648-0.48l1.92,0c0.36,0,0.576,0.168,0.672,0.432l5.88,15.48c0.048,0.12,0.048,0.216,0.048,0.312z M24.792,106.528l-1.704-5.064c-0.216-0.672-0.36-1.176-0.48-1.56l-0.048,0c-0.12,0.408-0.264,0.912-0.504,1.584l-1.704,5.04l4.44,0z M43.812,112.336c0,0.408-0.144,0.624-0.576,0.624l-1.728,0c-0.432,0-0.576-0.216-0.576-0.624l0-6.528c0-1.32-0.36-2.256-1.824-2.256c-0.936,0-2.088,0.504-2.832,1.152l0,7.656c0,0.408-0.168,0.6-0.576,0.6l-1.752,0c-0.36,0-0.576-0.192-0.576-0.576l0-10.464c0-0.384,0.168-0.6,0.6-0.6l1.56,0c0.336,0,0.552,0.096,0.576,0.456l0.024,0.624c1.104-0.888,2.496-1.392,3.888-1.392c2.688,0,3.792,1.68,3.792,4.296l0,7.032z M58.608,112.36c0,0.408-0.24,0.6-0.528,0.6l-1.56,0c-0.384,0-0.552-0.192-0.576-0.48l-0.048-0.648c-0.672,0.768-2.016,1.416-3.264,1.416c-3.48,0-5.064-2.76-5.064-5.976c0-3.36,1.872-6.288,5.256-6.288c1.08,0,2.208,0.432,2.88,1.128l0-5.4c0-0.432,0.12-0.6,0.504-0.648l1.776-0.24c0.024,0,0.216-0.024,0.24-0.024c0.288,0,0.384,0.12,0.384,0.48l0,16.08z M55.704,109.696l0-5.208c-0.48-0.648-1.392-1.176-2.304-1.176c-1.944,0-2.808,1.824-2.808,3.792s0.72,3.792,2.664,3.792c0.888,0,1.968-0.6,2.448-1.2z M69.636,101.416c0,0.072,0,0.144-0.024,0.216l-0.264,1.704c-0.024,0.216-0.144,0.312-0.336,0.312l-0.096,0c-0.192-0.048-0.432-0.072-0.648-0.072c-0.816,0-1.704,0.432-2.304,1.152l0,7.632c0,0.384-0.168,0.6-0.576,0.6l-1.752,0c-0.384,0-0.576-0.192-0.576-0.6l0-7.488l0-2.952c0-0.48,0.24-0.6,0.6-0.6l1.536,0c0.384,0,0.6,0.12,0.6,0.456l0.024,0.768c0.744-0.936,1.56-1.536,2.904-1.536c0.192,0,0.456,0.048,0.672,0.096c0.168,0.048,0.24,0.12,0.24,0.312z M82.944,107.104c0,0.576-0.192,0.696-0.792,0.696l-7.032,0c0.192,1.848,1.536,3.12,3.432,3.12c1.008,0,2.064-0.24,2.952-0.576c0.096-0.024,0.168-0.072,0.264-0.072c0.168,0,0.288,0.096,0.336,0.288l0.336,1.224c0.024,0.12,0.048,0.216,0.048,0.288c0,0.168-0.096,0.288-0.384,0.408c-1.176,0.528-2.784,0.768-4.032,0.768c-3.768,0-6-2.4-6-6.144c0-3.6,2.376-6.096,5.952-6.096c1.464,0,2.664,0.552,3.504,1.44c1.104,1.152,1.416,2.664,1.416,4.296l0,0.36z M80.088,105.904l0-0.264c-0.048-1.248-0.768-2.4-2.232-2.4c-1.56,0-2.496,1.248-2.688,2.664l4.92,0z M101.988,101.632c0,0.072,0,0.12-0.024,0.192l-3.216,10.56c-0.12,0.36-0.312,0.576-0.744,0.576l-1.632,0c-0.432,0-0.624-0.216-0.744-0.6l-1.992-6.84l-0.048,0l-1.968,6.888c-0.12,0.384-0.336,0.552-0.768,0.552l-1.608,0c-0.384,0-0.648-0.24-0.744-0.576l-3.144-10.56c-0.024-0.072-0.024-0.144-0.024-0.192c0-0.216,0.168-0.312,0.48-0.312l1.968,0c0.456,0,0.6,0.168,0.672,0.456l1.728,7.584l0.024,0l2.232-7.56c0.096-0.36,0.336-0.48,0.648-0.48l1.344,0c0.36,0,0.576,0.12,0.648,0.408l2.184,7.68l0.024,0l1.8-7.56c0.072-0.336,0.264-0.528,0.696-0.528l1.848,0c0.288,0,0.36,0.144,0.36,0.312z M122.46,112.384c0,0.432-0.216,0.576-0.576,0.576l-8.544,0c-0.432,0-0.624-0.144-0.624-0.672l0-15.336c0-0.384,0.192-0.6,0.576-0.6l1.92,0c0.432,0,0.6,0.168,0.6,0.624l0,13.416l6.072,0c0.408,0,0.576,0.192,0.576,0.552l0,1.44z M128.976,98.272c0,0.936-0.816,1.512-1.608,1.512s-1.632-0.528-1.632-1.488s0.792-1.536,1.632-1.536c0.816,0,1.608,0.552,1.608,1.512z M128.832,112.36c0,0.432-0.192,0.6-0.6,0.6l-1.68,0c-0.432,0-0.624-0.168-0.624-0.6l0-10.488c0-0.408,0.24-0.552,0.624-0.552l1.68,0c0.384,0,0.6,0.12,0.6,0.552l0,10.488z M143.868,112.336c0,0.408-0.144,0.624-0.576,0.624l-1.728,0c-0.432,0-0.576-0.216-0.576-0.624l0-6.528c0-1.32-0.36-2.256-1.824-2.256c-0.936,0-2.088,0.504-2.832,1.152l0,7.656c0,0.408-0.168,0.6-0.576,0.6l-1.752,0c-0.36,0-0.576-0.192-0.576-0.576l0-10.464c0-0.384,0.168-0.6,0.6-0.6l1.56,0c0.336,0,0.552,0.096,0.576,0.456l0.024,0.624c1.104-0.888,2.496-1.392,3.888-1.392c2.688,0,3.792,1.68,3.792,4.296l0,7.032z"/><path fill="#" d=""/></svg>
