<svg id="visual" viewBox="0 0 900 600" width="900" height="600" xmlns="http://www.w3.org/2000/svg" xmlns:xlink="http://www.w3.org/1999/xlink" version="1.1"><rect x="0" y="0" width="900" height="600" fill="#f8f9f9"></rect><path d="M0 401L21.5 380.3C43 359.7 86 318.3 128.8 311.2C171.7 304 214.3 331 257.2 334C300 337 343 316 385.8 312.3C428.7 308.7 471.3 322.3 514.2 337.5C557 352.7 600 369.3 642.8 380.8C685.7 392.3 728.3 398.7 771.2 381.3C814 364 857 323 878.5 302.5L900 282L900 0L878.5 0C857 0 814 0 771.2 0C728.3 0 685.7 0 642.8 0C600 0 557 0 514.2 0C471.3 0 428.7 0 385.8 0C343 0 300 0 257.2 0C214.3 0 171.7 0 128.8 0C86 0 43 0 21.5 0L0 0Z" fill="#697bfa"></path><path d="M0 283L21.5 291.5C43 300 86 317 128.8 309.5C171.7 302 214.3 270 257.2 267.5C300 265 343 292 385.8 298.7C428.7 305.3 471.3 291.7 514.2 275.5C557 259.3 600 240.7 642.8 239.5C685.7 238.3 728.3 254.7 771.2 261.7C814 268.7 857 266.3 878.5 265.2L900 264L900 0L878.5 0C857 0 814 0 771.2 0C728.3 0 685.7 0 642.8 0C600 0 557 0 514.2 0C471.3 0 428.7 0 385.8 0C343 0 300 0 257.2 0C214.3 0 171.7 0 128.8 0C86 0 43 0 21.5 0L0 0Z" fill="#838ffb"></path><path d="M0 184L21.5 195.7C43 207.3 86 230.7 128.8 246C171.7 261.3 214.3 268.7 257.2 265.5C300 262.3 343 248.7 385.8 231.7C428.7 214.7 471.3 194.3 514.2 192.5C557 190.7 600 207.3 642.8 224C685.7 240.7 728.3 257.3 771.2 252C814 246.7 857 219.3 878.5 205.7L900 192L900 0L878.5 0C857 0 814 0 771.2 0C728.3 0 685.7 0 642.8 0C600 0 557 0 514.2 0C471.3 0 428.7 0 385.8 0C343 0 300 0 257.2 0C214.3 0 171.7 0 128.8 0C86 0 43 0 21.5 0L0 0Z" fill="#9ba3fb"></path><path d="M0 194L21.5 194.5C43 195 86 196 128.8 196.2C171.7 196.3 214.3 195.7 257.2 188.5C300 181.3 343 167.7 385.8 163.8C428.7 160 471.3 166 514.2 163.3C557 160.7 600 149.3 642.8 143.7C685.7 138 728.3 138 771.2 137.3C814 136.7 857 135.3 878.5 134.7L900 134L900 0L878.5 0C857 0 814 0 771.2 0C728.3 0 685.7 0 642.8 0C600 0 557 0 514.2 0C471.3 0 428.7 0 385.8 0C343 0 300 0 257.2 0C214.3 0 171.7 0 128.8 0C86 0 43 0 21.5 0L0 0Z" fill="#b2b7fa"></path><path d="M0 74L21.5 74C43 74 86 74 128.8 82.8C171.7 91.7 214.3 109.3 257.2 110.5C300 111.7 343 96.3 385.8 91.3C428.7 86.3 471.3 91.7 514.2 86.3C557 81 600 65 642.8 68.7C685.7 72.3 728.3 95.7 771.2 101C814 106.3 857 93.7 878.5 87.3L900 81L900 0L878.5 0C857 0 814 0 771.2 0C728.3 0 685.7 0 642.8 0C600 0 557 0 514.2 0C471.3 0 428.7 0 385.8 0C343 0 300 0 257.2 0C214.3 0 171.7 0 128.8 0C86 0 43 0 21.5 0L0 0Z" fill="#c8cbf9"></path></svg>