<svg id="visual" viewBox="0 0 900 600" width="900" height="600" xmlns="http://www.w3.org/2000/svg" xmlns:xlink="http://www.w3.org/1999/xlink" version="1.1"><rect x="0" y="0" width="900" height="600" fill="#001220"></rect><path d="M0 237L21.5 234.3C43 231.7 86 226.3 128.8 225.3C171.7 224.3 214.3 227.7 257.2 219C300 210.3 343 189.7 385.8 191.7C428.7 193.7 471.3 218.3 514.2 217.7C557 217 600 191 642.8 188.8C685.7 186.7 728.3 208.3 771.2 218.8C814 229.3 857 228.7 878.5 228.3L900 228L900 0L878.5 0C857 0 814 0 771.2 0C728.3 0 685.7 0 642.8 0C600 0 557 0 514.2 0C471.3 0 428.7 0 385.8 0C343 0 300 0 257.2 0C214.3 0 171.7 0 128.8 0C86 0 43 0 21.5 0L0 0Z" fill="#fa7268"></path><path d="M0 147L21.5 143.2C43 139.3 86 131.7 128.8 137C171.7 142.3 214.3 160.7 257.2 159.8C300 159 343 139 385.8 135.8C428.7 132.7 471.3 146.3 514.2 151C557 155.7 600 151.3 642.8 152.3C685.7 153.3 728.3 159.7 771.2 160.7C814 161.7 857 157.3 878.5 155.2L900 153L900 0L878.5 0C857 0 814 0 771.2 0C728.3 0 685.7 0 642.8 0C600 0 557 0 514.2 0C471.3 0 428.7 0 385.8 0C343 0 300 0 257.2 0C214.3 0 171.7 0 128.8 0C86 0 43 0 21.5 0L0 0Z" fill="#ef5f67"></path><path d="M0 101L21.5 106C43 111 86 121 128.8 131C171.7 141 214.3 151 257.2 150.5C300 150 343 139 385.8 133.2C428.7 127.3 471.3 126.7 514.2 124.2C557 121.7 600 117.3 642.8 121.8C685.7 126.3 728.3 139.7 771.2 136.5C814 133.3 857 113.7 878.5 103.8L900 94L900 0L878.5 0C857 0 814 0 771.2 0C728.3 0 685.7 0 642.8 0C600 0 557 0 514.2 0C471.3 0 428.7 0 385.8 0C343 0 300 0 257.2 0C214.3 0 171.7 0 128.8 0C86 0 43 0 21.5 0L0 0Z" fill="#e34c67"></path><path d="M0 107L21.5 101C43 95 86 83 128.8 78.3C171.7 73.7 214.3 76.3 257.2 83.8C300 91.3 343 103.7 385.8 103C428.7 102.3 471.3 88.7 514.2 82C557 75.3 600 75.7 642.8 73.3C685.7 71 728.3 66 771.2 70C814 74 857 87 878.5 93.5L900 100L900 0L878.5 0C857 0 814 0 771.2 0C728.3 0 685.7 0 642.8 0C600 0 557 0 514.2 0C471.3 0 428.7 0 385.8 0C343 0 300 0 257.2 0C214.3 0 171.7 0 128.8 0C86 0 43 0 21.5 0L0 0Z" fill="#d53867"></path><path d="M0 32L21.5 37.5C43 43 86 54 128.8 53C171.7 52 214.3 39 257.2 40.2C300 41.3 343 56.7 385.8 61.2C428.7 65.7 471.3 59.3 514.2 56.2C557 53 600 53 642.8 53.7C685.7 54.3 728.3 55.7 771.2 57C814 58.3 857 59.7 878.5 60.3L900 61L900 0L878.5 0C857 0 814 0 771.2 0C728.3 0 685.7 0 642.8 0C600 0 557 0 514.2 0C471.3 0 428.7 0 385.8 0C343 0 300 0 257.2 0C214.3 0 171.7 0 128.8 0C86 0 43 0 21.5 0L0 0Z" fill="#c62368"></path></svg>