<svg id="visual" viewBox="0 0 900 600" width="900" height="600" xmlns="http://www.w3.org/2000/svg" xmlns:xlink="http://www.w3.org/1999/xlink" version="1.1"><rect x="0" y="0" width="900" height="600" fill="#cfd3ff"></rect><path d="M0 446L21.5 423C43 400 86 354 128.8 346C171.7 338 214.3 368 257.2 371.3C300 374.7 343 351.3 385.8 347.3C428.7 343.3 471.3 358.7 514.2 375.5C557 392.3 600 410.7 642.8 423.3C685.7 436 728.3 443 771.2 423.7C814 404.3 857 358.7 878.5 335.8L900 313L900 0L878.5 0C857 0 814 0 771.2 0C728.3 0 685.7 0 642.8 0C600 0 557 0 514.2 0C471.3 0 428.7 0 385.8 0C343 0 300 0 257.2 0C214.3 0 171.7 0 128.8 0C86 0 43 0 21.5 0L0 0Z" fill="#8e9bf7"></path><path d="M0 315L21.5 324.3C43 333.7 86 352.3 128.8 343.8C171.7 335.3 214.3 299.7 257.2 297C300 294.3 343 324.7 385.8 332.2C428.7 339.7 471.3 324.3 514.2 306.3C557 288.3 600 267.7 642.8 266.5C685.7 265.3 728.3 283.7 771.2 291.3C814 299 857 296 878.5 294.5L900 293L900 0L878.5 0C857 0 814 0 771.2 0C728.3 0 685.7 0 642.8 0C600 0 557 0 514.2 0C471.3 0 428.7 0 385.8 0C343 0 300 0 257.2 0C214.3 0 171.7 0 128.8 0C86 0 43 0 21.5 0L0 0Z" fill="#a1aaf9"></path><path d="M0 204L21.5 217.2C43 230.3 86 256.7 128.8 273.8C171.7 291 214.3 299 257.2 295.3C300 291.7 343 276.3 385.8 257.5C428.7 238.7 471.3 216.3 514.2 214.3C557 212.3 600 230.7 642.8 249.2C685.7 267.7 728.3 286.3 771.2 280.3C814 274.3 857 243.7 878.5 228.3L900 213L900 0L878.5 0C857 0 814 0 771.2 0C728.3 0 685.7 0 642.8 0C600 0 557 0 514.2 0C471.3 0 428.7 0 385.8 0C343 0 300 0 257.2 0C214.3 0 171.7 0 128.8 0C86 0 43 0 21.5 0L0 0Z" fill="#b3bafb"></path><path d="M0 215L21.5 215.7C43 216.3 86 217.7 128.8 218C171.7 218.3 214.3 217.7 257.2 209.7C300 201.7 343 186.3 385.8 182C428.7 177.7 471.3 184.3 514.2 181.5C557 178.7 600 166.3 642.8 160.2C685.7 154 728.3 154 771.2 153C814 152 857 150 878.5 149L900 148L900 0L878.5 0C857 0 814 0 771.2 0C728.3 0 685.7 0 642.8 0C600 0 557 0 514.2 0C471.3 0 428.7 0 385.8 0C343 0 300 0 257.2 0C214.3 0 171.7 0 128.8 0C86 0 43 0 21.5 0L0 0Z" fill="#c5c9fd"></path><path d="M0 82L21.5 82.2C43 82.3 86 82.7 128.8 92.5C171.7 102.3 214.3 121.7 257.2 123C300 124.3 343 107.7 385.8 102.2C428.7 96.7 471.3 102.3 514.2 96.2C557 90 600 72 642.8 76C685.7 80 728.3 106 771.2 112C814 118 857 104 878.5 97L900 90L900 0L878.5 0C857 0 814 0 771.2 0C728.3 0 685.7 0 642.8 0C600 0 557 0 514.2 0C471.3 0 428.7 0 385.8 0C343 0 300 0 257.2 0C214.3 0 171.7 0 128.8 0C86 0 43 0 21.5 0L0 0Z" fill="#d6d9ff"></path></svg>