<svg id="visual" viewBox="0 0 900 600" width="900" height="600" xmlns="http://www.w3.org/2000/svg" xmlns:xlink="http://www.w3.org/1999/xlink" version="1.1"><rect x="0" y="0" width="900" height="600" fill="#f8f9f9"></rect><path d="M0 223L21.5 211.5C43 200 86 177 128.8 173C171.7 169 214.3 184 257.2 185.7C300 187.3 343 175.7 385.8 173.5C428.7 171.3 471.3 178.7 514.2 187C557 195.3 600 204.7 642.8 211C685.7 217.3 728.3 220.7 771.2 211C814 201.3 857 178.7 878.5 167.3L900 156L900 0L878.5 0C857 0 814 0 771.2 0C728.3 0 685.7 0 642.8 0C600 0 557 0 514.2 0C471.3 0 428.7 0 385.8 0C343 0 300 0 257.2 0C214.3 0 171.7 0 128.8 0C86 0 43 0 21.5 0L0 0Z" fill="#697bfa"></path><path d="M0 157L21.5 161.7C43 166.3 86 175.7 128.8 171.5C171.7 167.3 214.3 149.7 257.2 148.3C300 147 343 162 385.8 165.7C428.7 169.3 471.3 161.7 514.2 152.7C557 143.7 600 133.3 642.8 132.7C685.7 132 728.3 141 771.2 144.8C814 148.7 857 147.3 878.5 146.7L900 146L900 0L878.5 0C857 0 814 0 771.2 0C728.3 0 685.7 0 642.8 0C600 0 557 0 514.2 0C471.3 0 428.7 0 385.8 0C343 0 300 0 257.2 0C214.3 0 171.7 0 128.8 0C86 0 43 0 21.5 0L0 0Z" fill="#838ffb"></path><path d="M0 102L21.5 108.5C43 115 86 128 128.8 136.5C171.7 145 214.3 149 257.2 147.2C300 145.3 343 137.7 385.8 128.2C428.7 118.7 471.3 107.3 514.2 106.3C557 105.3 600 114.7 642.8 124C685.7 133.3 728.3 142.7 771.2 139.7C814 136.7 857 121.3 878.5 113.7L900 106L900 0L878.5 0C857 0 814 0 771.2 0C728.3 0 685.7 0 642.8 0C600 0 557 0 514.2 0C471.3 0 428.7 0 385.8 0C343 0 300 0 257.2 0C214.3 0 171.7 0 128.8 0C86 0 43 0 21.5 0L0 0Z" fill="#9ba3fb"></path><path d="M0 107L21.5 107.3C43 107.7 86 108.3 128.8 108.5C171.7 108.7 214.3 108.3 257.2 104.3C300 100.3 343 92.7 385.8 90.5C428.7 88.3 471.3 91.7 514.2 90.2C557 88.7 600 82.3 642.8 79.2C685.7 76 728.3 76 771.2 75.7C814 75.3 857 74.7 878.5 74.3L900 74L900 0L878.5 0C857 0 814 0 771.2 0C728.3 0 685.7 0 642.8 0C600 0 557 0 514.2 0C471.3 0 428.7 0 385.8 0C343 0 300 0 257.2 0C214.3 0 171.7 0 128.8 0C86 0 43 0 21.5 0L0 0Z" fill="#b2b7fa"></path><path d="M0 41L21.5 41C43 41 86 41 128.8 45.8C171.7 50.7 214.3 60.3 257.2 61C300 61.7 343 53.3 385.8 50.5C428.7 47.7 471.3 50.3 514.2 47.3C557 44.3 600 35.7 642.8 37.7C685.7 39.7 728.3 52.3 771.2 55.2C814 58 857 51 878.5 47.5L900 44L900 0L878.5 0C857 0 814 0 771.2 0C728.3 0 685.7 0 642.8 0C600 0 557 0 514.2 0C471.3 0 428.7 0 385.8 0C343 0 300 0 257.2 0C214.3 0 171.7 0 128.8 0C86 0 43 0 21.5 0L0 0Z" fill="#c8cbf9"></path></svg>