<svg id="visual" viewBox="0 0 900 600" width="900" height="600" xmlns="http://www.w3.org/2000/svg" xmlns:xlink="http://www.w3.org/1999/xlink" version="1.1"><rect width="900" height="600" fill="#f8f9f9"></rect><g><g transform="translate(735 345)"><path d="M0 -138.2L119.7 -69.1L119.7 69.1L0 138.2L-119.7 69.1L-119.7 -69.1Z" fill="#f1f1f1"></path></g><g transform="translate(45 289)"><path d="M0 -106L91.8 -53L91.8 53L0 106L-91.8 53L-91.8 -53Z" fill="#f1f1f1"></path></g><g transform="translate(355 388)"><path d="M0 -98L84.9 -49L84.9 49L0 98L-84.9 49L-84.9 -49Z" fill="#f1f1f1"></path></g><g transform="translate(604 99)"><path d="M0 -90L77.9 -45L77.9 45L0 90L-77.9 45L-77.9 -45Z" fill="#f1f1f1"></path></g></g></svg>