<svg id="visual" viewBox="0 0 450 900" width="450" height="900" xmlns="http://www.w3.org/2000/svg" xmlns:xlink="http://www.w3.org/1999/xlink" version="1.1"><path d="M346 900L347.5 886.3C349 872.7 352 845.3 351.2 818C350.3 790.7 345.7 763.3 342.7 736.2C339.7 709 338.3 682 346.7 654.8C355 627.7 373 600.3 379.7 573C386.3 545.7 381.7 518.3 380.8 491C380 463.7 383 436.3 383.8 409C384.7 381.7 383.3 354.3 369 327C354.7 299.7 327.3 272.3 325 245.2C322.7 218 345.3 191 348.5 163.8C351.7 136.7 335.3 109.3 335.3 82C335.3 54.7 351.7 27.3 359.8 13.7L368 0L450 0L450 13.7C450 27.3 450 54.7 450 82C450 109.3 450 136.7 450 163.8C450 191 450 218 450 245.2C450 272.3 450 299.7 450 327C450 354.3 450 381.7 450 409C450 436.3 450 463.7 450 491C450 518.3 450 545.7 450 573C450 600.3 450 627.7 450 654.8C450 682 450 709 450 736.2C450 763.3 450 790.7 450 818C450 845.3 450 872.7 450 886.3L450 900Z" fill="#efe5f9"></path><path d="M310 900L314.5 886.3C319 872.7 328 845.3 328 818C328 790.7 319 763.3 313.7 736.2C308.3 709 306.7 682 314.2 654.8C321.7 627.7 338.3 600.3 347.3 573C356.3 545.7 357.7 518.3 359.2 491C360.7 463.7 362.3 436.3 360.8 409C359.3 381.7 354.7 354.3 340.3 327C326 299.7 302 272.3 301.3 245.2C300.7 218 323.3 191 327 163.8C330.7 136.7 315.3 109.3 315.3 82C315.3 54.7 330.7 27.3 338.3 13.7L346 0L369 0L360.8 13.7C352.7 27.3 336.3 54.7 336.3 82C336.3 109.3 352.7 136.7 349.5 163.8C346.3 191 323.7 218 326 245.2C328.3 272.3 355.7 299.7 370 327C384.3 354.3 385.7 381.7 384.8 409C384 436.3 381 463.7 381.8 491C382.7 518.3 387.3 545.7 380.7 573C374 600.3 356 627.7 347.7 654.8C339.3 682 340.7 709 343.7 736.2C346.7 763.3 351.3 790.7 352.2 818C353 845.3 350 872.7 348.5 886.3L347 900Z" fill="#f3ecfb"></path><path d="M283 900L289 886.3C295 872.7 307 845.3 308.5 818C310 790.7 301 763.3 294.2 736.2C287.3 709 282.7 682 290.2 654.8C297.7 627.7 317.3 600.3 328.7 573C340 545.7 343 518.3 345.2 491C347.3 463.7 348.7 436.3 345.7 409C342.7 381.7 335.3 354.3 319.7 327C304 299.7 280 272.3 278.5 245.2C277 218 298 191 301.7 163.8C305.3 136.7 291.7 109.3 292.3 82C293 54.7 308 27.3 315.5 13.7L323 0L347 0L339.3 13.7C331.7 27.3 316.3 54.7 316.3 82C316.3 109.3 331.7 136.7 328 163.8C324.3 191 301.7 218 302.3 245.2C303 272.3 327 299.7 341.3 327C355.7 354.3 360.3 381.7 361.8 409C363.3 436.3 361.7 463.7 360.2 491C358.7 518.3 357.3 545.7 348.3 573C339.3 600.3 322.7 627.7 315.2 654.8C307.7 682 309.3 709 314.7 736.2C320 763.3 329 790.7 329 818C329 845.3 320 872.7 315.5 886.3L311 900Z" fill="#f8f3fc"></path><path d="M211 900L205.7 886.3C200.3 872.7 189.7 845.3 192.7 818C195.7 790.7 212.3 763.3 218.3 736.2C224.3 709 219.7 682 218.8 654.8C218 627.7 221 600.3 224 573C227 545.7 230 518.3 232.3 491C234.7 463.7 236.3 436.3 234.8 409C233.3 381.7 228.7 354.3 221.2 327C213.7 299.7 203.3 272.3 201.8 245.2C200.3 218 207.7 191 209.8 163.8C212 136.7 209 109.3 209.8 82C210.7 54.7 215.3 27.3 217.7 13.7L220 0L324 0L316.5 13.7C309 27.3 294 54.7 293.3 82C292.7 109.3 306.3 136.7 302.7 163.8C299 191 278 218 279.5 245.2C281 272.3 305 299.7 320.7 327C336.3 354.3 343.7 381.7 346.7 409C349.7 436.3 348.3 463.7 346.2 491C344 518.3 341 545.7 329.7 573C318.3 600.3 298.7 627.7 291.2 654.8C283.7 682 288.3 709 295.2 736.2C302 763.3 311 790.7 309.5 818C308 845.3 296 872.7 290 886.3L284 900Z" fill="#fcfbfe"></path><path d="M193 900L185.3 886.3C177.7 872.7 162.3 845.3 163.7 818C165 790.7 183 763.3 190.7 736.2C198.3 709 195.7 682 194.3 654.8C193 627.7 193 600.3 196.7 573C200.3 545.7 207.7 518.3 212.2 491C216.7 463.7 218.3 436.3 217.7 409C217 381.7 214 354.3 205 327C196 299.7 181 272.3 179.3 245.2C177.7 218 189.3 191 193.8 163.8C198.3 136.7 195.7 109.3 194.3 82C193 54.7 193 27.3 193 13.7L193 0L221 0L218.7 13.7C216.3 27.3 211.7 54.7 210.8 82C210 109.3 213 136.7 210.8 163.8C208.7 191 201.3 218 202.8 245.2C204.3 272.3 214.7 299.7 222.2 327C229.7 354.3 234.3 381.7 235.8 409C237.3 436.3 235.7 463.7 233.3 491C231 518.3 228 545.7 225 573C222 600.3 219 627.7 219.8 654.8C220.7 682 225.3 709 219.3 736.2C213.3 763.3 196.7 790.7 193.7 818C190.7 845.3 201.3 872.7 206.7 886.3L212 900Z" fill="#ffffff"></path><path d="M161 900L156.5 886.3C152 872.7 143 845.3 146.8 818C150.7 790.7 167.3 763.3 174.8 736.2C182.3 709 180.7 682 178.3 654.8C176 627.7 173 600.3 173 573C173 545.7 176 518.3 182 491C188 463.7 197 436.3 196.3 409C195.7 381.7 185.3 354.3 173.3 327C161.3 299.7 147.7 272.3 149.2 245.2C150.7 218 167.3 191 173.3 163.8C179.3 136.7 174.7 109.3 173.8 82C173 54.7 176 27.3 177.5 13.7L179 0L194 0L194 13.7C194 27.3 194 54.7 195.3 82C196.7 109.3 199.3 136.7 194.8 163.8C190.3 191 178.7 218 180.3 245.2C182 272.3 197 299.7 206 327C215 354.3 218 381.7 218.7 409C219.3 436.3 217.7 463.7 213.2 491C208.7 518.3 201.3 545.7 197.7 573C194 600.3 194 627.7 195.3 654.8C196.7 682 199.3 709 191.7 736.2C184 763.3 166 790.7 164.7 818C163.3 845.3 178.7 872.7 186.3 886.3L194 900Z" fill="#ffffff"></path><path d="M139 900L132.2 886.3C125.3 872.7 111.7 845.3 111.7 818C111.7 790.7 125.3 763.3 135.8 736.2C146.3 709 153.7 682 154.3 654.8C155 627.7 149 600.3 145.3 573C141.7 545.7 140.3 518.3 143.3 491C146.3 463.7 153.7 436.3 155 409C156.3 381.7 151.7 354.3 140.3 327C129 299.7 111 272.3 114.2 245.2C117.3 218 141.7 191 150.7 163.8C159.7 136.7 153.3 109.3 148 82C142.7 54.7 138.3 27.3 136.2 13.7L134 0L180 0L178.5 13.7C177 27.3 174 54.7 174.8 82C175.7 109.3 180.3 136.7 174.3 163.8C168.3 191 151.7 218 150.2 245.2C148.7 272.3 162.3 299.7 174.3 327C186.3 354.3 196.7 381.7 197.3 409C198 436.3 189 463.7 183 491C177 518.3 174 545.7 174 573C174 600.3 177 627.7 179.3 654.8C181.7 682 183.3 709 175.8 736.2C168.3 763.3 151.7 790.7 147.8 818C144 845.3 153 872.7 157.5 886.3L162 900Z" fill="#fcfbfe"></path><path d="M84 900L79.7 886.3C75.3 872.7 66.7 845.3 69 818C71.3 790.7 84.7 763.3 88.3 736.2C92 709 86 682 80.8 654.8C75.7 627.7 71.3 600.3 72.8 573C74.3 545.7 81.7 518.3 86.8 491C92 463.7 95 436.3 91.3 409C87.7 381.7 77.3 354.3 69.8 327C62.3 299.7 57.7 272.3 59.8 245.2C62 218 71 191 77.7 163.8C84.3 136.7 88.7 109.3 88 82C87.3 54.7 81.7 27.3 78.8 13.7L76 0L135 0L137.2 13.7C139.3 27.3 143.7 54.7 149 82C154.3 109.3 160.7 136.7 151.7 163.8C142.7 191 118.3 218 115.2 245.2C112 272.3 130 299.7 141.3 327C152.7 354.3 157.3 381.7 156 409C154.7 436.3 147.3 463.7 144.3 491C141.3 518.3 142.7 545.7 146.3 573C150 600.3 156 627.7 155.3 654.8C154.7 682 147.3 709 136.8 736.2C126.3 763.3 112.7 790.7 112.7 818C112.7 845.3 126.3 872.7 133.2 886.3L140 900Z" fill="#f8f3fc"></path><path d="M48 900L44.3 886.3C40.7 872.7 33.3 845.3 33.3 818C33.3 790.7 40.7 763.3 40.7 736.2C40.7 709 33.3 682 29 654.8C24.7 627.7 23.3 600.3 27 573C30.7 545.7 39.3 518.3 41.5 491C43.7 463.7 39.3 436.3 35 409C30.7 381.7 26.3 354.3 24.8 327C23.3 299.7 24.7 272.3 29.8 245.2C35 218 44 191 48.5 163.8C53 136.7 53 109.3 51.5 82C50 54.7 47 27.3 45.5 13.7L44 0L77 0L79.8 13.7C82.7 27.3 88.3 54.7 89 82C89.7 109.3 85.3 136.7 78.7 163.8C72 191 63 218 60.8 245.2C58.7 272.3 63.3 299.7 70.8 327C78.3 354.3 88.7 381.7 92.3 409C96 436.3 93 463.7 87.8 491C82.7 518.3 75.3 545.7 73.8 573C72.3 600.3 76.7 627.7 81.8 654.8C87 682 93 709 89.3 736.2C85.7 763.3 72.3 790.7 70 818C67.7 845.3 76.3 872.7 80.7 886.3L85 900Z" fill="#f3ecfb"></path><path d="M0 900L0 886.3C0 872.7 0 845.3 0 818C0 790.7 0 763.3 0 736.2C0 709 0 682 0 654.8C0 627.7 0 600.3 0 573C0 545.7 0 518.3 0 491C0 463.7 0 436.3 0 409C0 381.7 0 354.3 0 327C0 299.7 0 272.3 0 245.2C0 218 0 191 0 163.8C0 136.7 0 109.3 0 82C0 54.7 0 27.3 0 13.7L0 0L45 0L46.5 13.7C48 27.3 51 54.7 52.5 82C54 109.3 54 136.7 49.5 163.8C45 191 36 218 30.8 245.2C25.7 272.3 24.3 299.7 25.8 327C27.3 354.3 31.7 381.7 36 409C40.3 436.3 44.7 463.7 42.5 491C40.3 518.3 31.7 545.7 28 573C24.3 600.3 25.7 627.7 30 654.8C34.3 682 41.7 709 41.7 736.2C41.7 763.3 34.3 790.7 34.3 818C34.3 845.3 41.7 872.7 45.3 886.3L49 900Z" fill="#efe5f9"></path></svg>